<?xml version="1.0" encoding="UTF-8"?>
<!DOCTYPE svg PUBLIC "-//W3C//DTD SVG 1.1//EN" "http://www.w3.org/Graphics/SVG/1.1/DTD/svg11.dtd">
<!-- Creator: CorelDRAW 2020 (64-Bit) -->
<svg xmlns="http://www.w3.org/2000/svg" xml:space="preserve" width="210mm" height="297mm" version="1.1" style="shape-rendering:geometricPrecision; text-rendering:geometricPrecision; image-rendering:optimizeQuality; fill-rule:evenodd; clip-rule:evenodd"
viewBox="0 0 21000 29700"
 xmlns:xlink="http://www.w3.org/1999/xlink"
 xmlns:xodm="http://www.corel.com/coreldraw/odm/2003">
 <defs>
  <style type="text/css">
   <![CDATA[
    .str0 {stroke:#2B2A29;stroke-width:1.98;stroke-miterlimit:22.9256}
    .fil1 {fill:none}
    .fil0 {fill:#2B2A29}
   ]]>
  </style>
 </defs>
 <g id="Слой_x0020_1">
  <metadata id="CorelCorpID_0Corel-Layer"/>
  <g id="first_x0020_aide.eps">
   <path class="fil0" d="M6504.56 13708.19l166.91 0 0 -387.97c0,-99.93 81.6,-181.51 181.16,-181.51l956.79 0c100.2,0 181.79,81.58 181.79,181.51l0 387.97 780.77 0 0 -440.74c0,-261.73 107.32,-499.76 280.05,-672.79l1.31 -1.37c172.67,-172.66 411.04,-279.69 672.76,-279.69l2706.32 0c261.98,0 500.99,107.03 673.66,279.69l-0.64 1c172.67,172.78 280.37,411.43 280.37,673.16l0 440.74 762.52 0 0 -387.97c0,-99.93 81.26,-181.51 180.73,-181.51l956.8 0c100.3,0 181.52,81.58 181.52,181.51l0 387.97 186.25 0c756.37,0 1375.26,618.65 1375.26,1375.01l0 5831.33c0,755.75 -618.89,1374.59 -1375.26,1374.59l-9149.07 0c-756.77,0 -1375.3,-618.84 -1375.3,-1374.59l0 -5831.33c0,-756.36 618.53,-1375.01 1375.3,-1375.01zm3984.01 1777.25l1232.77 0c143.58,0 260.69,117.48 260.69,261.06l0 1481.58 1481.66 0c143.57,0 260.7,116.84 260.7,260.68l0 1232.4c0,144.3 -117.13,260.79 -260.7,260.79l-1481.66 0 0 1481.56c0,143.56 -117.11,261.43 -260.69,261.43l-1232.77 0c-143.87,0 -261,-117.87 -261,-261.43l0 -1481.56 -1481.3 0c-143.53,0 -261.05,-116.49 -261.05,-260.79l0 -1232.4c0,-143.84 117.52,-260.68 261.05,-260.68l1481.3 0 0 -1481.58c0,-143.58 117.13,-261.06 261,-261.06zm-1084.42 -1777.25l3349.82 0 0 -440.74c0,-88.45 -36.5,-169.67 -94.06,-226.92l-1.37 0c-58.2,-58.51 -138.82,-95.07 -226.12,-95.07l-2706.32 0c-88.67,0 -169.63,36.18 -227.17,93.69l-1.03 1.38c-57.54,57.25 -93.75,138.47 -93.75,226.92l0 440.74z"/>
   <path class="fil1 str0" d="M6504.56 13708.19l166.91 0 0 -387.97c0,-99.93 81.6,-181.51 181.16,-181.51l956.79 0c100.2,0 181.79,81.58 181.79,181.51l0 387.97 780.77 0 0 -440.74c0,-261.73 107.32,-499.76 280.05,-672.79l1.31 -1.37c172.67,-172.66 411.04,-279.69 672.76,-279.69l2706.32 0c261.98,0 500.99,107.03 673.66,279.69l-0.64 1c172.67,172.78 280.37,411.43 280.37,673.16l0 440.74 762.52 0 0 -387.97c0,-99.93 81.26,-181.51 180.73,-181.51l956.8 0c100.3,0 181.52,81.58 181.52,181.51l0 387.97 186.25 0c756.37,0 1375.26,618.65 1375.26,1375.01l0 5831.33c0,755.75 -618.89,1374.59 -1375.26,1374.59l-9149.07 0c-756.77,0 -1375.3,-618.84 -1375.3,-1374.59l0 -5831.33c0,-756.36 618.53,-1375.01 1375.3,-1375.01zm3984.01 1777.25l1232.77 0c143.58,0 260.69,117.48 260.69,261.06l0 1481.58 1481.66 0c143.57,0 260.7,116.84 260.7,260.68l0 1232.4c0,144.3 -117.13,260.79 -260.7,260.79l-1481.66 0 0 1481.56c0,143.56 -117.11,261.43 -260.69,261.43l-1232.77 0c-143.87,0 -261,-117.87 -261,-261.43l0 -1481.56 -1481.3 0c-143.53,0 -261.05,-116.49 -261.05,-260.79l0 -1232.4c0,-143.84 117.52,-260.68 261.05,-260.68l1481.3 0 0 -1481.58c0,-143.58 117.13,-261.06 261,-261.06zm-1084.42 -1777.25l3349.82 0 0 -440.74c0,-88.45 -36.5,-169.67 -94.06,-226.92l-1.37 0c-58.2,-58.51 -138.82,-95.07 -226.12,-95.07l-2706.32 0c-88.67,0 -169.63,36.18 -227.17,93.69l-1.03 1.38c-57.54,57.25 -93.75,138.47 -93.75,226.92l0 440.74z"/>
  </g>
 </g>
</svg>
