<?xml version="1.0" encoding="UTF-8"?>
<!DOCTYPE svg PUBLIC "-//W3C//DTD SVG 1.1//EN" "http://www.w3.org/Graphics/SVG/1.1/DTD/svg11.dtd">
<!-- Creator: CorelDRAW 2020 (64-Bit) -->
<svg xmlns="http://www.w3.org/2000/svg" xml:space="preserve" width="210mm" height="297mm" version="1.1" style="shape-rendering:geometricPrecision; text-rendering:geometricPrecision; image-rendering:optimizeQuality; fill-rule:evenodd; clip-rule:evenodd"
viewBox="0 0 21000 29700"
 xmlns:xlink="http://www.w3.org/1999/xlink"
 xmlns:xodm="http://www.corel.com/coreldraw/odm/2003">
 <defs>
  <style type="text/css">
   <![CDATA[
    .fil0 {fill:black}
   ]]>
  </style>
 </defs>
 <g id="Слой_x0020_1">
  <metadata id="CorelCorpID_0Corel-Layer"/>
  <g id="firstaide_kit.ai">
   <g>
    <path class="fil0" d="M14122.66 12070.04c-69.7,-554.7 230.34,-1064.96 388.05,-1516.94 23.52,-141.1 47.04,-282.24 70.56,-423.33 218.14,-672.54 517.58,-1453.18 776.11,-2081.39 69.59,-169.11 18.11,-335.38 105.83,-493.89 241.45,-436.3 233.25,-780.94 423.34,-1270 67.71,-174.23 170.67,-286.79 176.38,-564.45 -175.33,-29.08 -275.41,-94.71 -493.88,-105.83 0,11.76 0,23.52 0,35.28 -11.76,0 -23.52,0 -35.28,0 -17.27,553.04 -347.15,1002.37 -529.17,1411.11 -330.04,741.13 -440.55,1565.49 -740.83,2328.33 -238.9,606.92 -620.8,1296.63 -670.28,2046.11 232.78,72.2 295.57,237.55 282.22,564.45 -104.77,68.59 -137.05,142.13 -282.22,176.39 -222.78,147.12 -514.32,-104.06 -705.56,-141.11 -9.32,197.08 -0.44,312.86 0,564.44 159.62,54.19 192.26,129.49 423.34,141.11 81.05,-58 243.21,-83.33 352.78,-105.83 25.92,-152.41 67.94,-214.55 70.55,-423.34 73.23,13.13 67.89,8.54 105.83,35.28 54.35,81.57 39.49,285.94 35.28,423.34 -44.5,47.92 -48.16,62.38 -70.55,141.11 -379.15,197.37 -1031.77,170.7 -1023.06,-423.34 -164.61,11.76 -329.28,23.52 -493.89,35.28 0,-23.51 0,-47.04 0,-70.55 38.23,-32.06 2.99,2.75 35.28,-35.28 152.85,-23.52 305.76,-47.04 458.61,-70.56 0,-164.61 0,-329.27 0,-493.89 -559.38,-8.43 -1327.5,100.6 -1728.61,211.67 -270.43,11.76 -540.94,23.52 -811.38,35.28 -327.2,76.43 -855.06,137.53 -987.78,176.39 -136.02,39.82 -789.95,78.4 -846.66,35.27 -150.5,108.42 -182.13,19.68 -388.06,70.56 -415.28,102.61 -1019.73,185.3 -1411.11,317.5 -330.73,111.71 -619.98,16.37 -952.5,105.83 -398.17,107.14 -955.07,300.43 -1340.56,423.34 -176.93,56.41 -288.62,-30.44 -352.77,0 -87.05,45.67 -24.03,-15.14 -70.56,70.55 -53.43,70.93 -46.77,424.04 -105.83,599.72 -35.28,-11.75 -70.56,-23.51 -105.84,-35.27 -13.54,92.31 26.21,46.2 -70.55,70.55 -3.31,-218.19 56.81,-332.78 105.83,-458.61 0,-82.3 0,-164.64 0,-246.94 123.59,-457.57 213.4,-1056.06 423.33,-1446.39 112.05,-208.32 46.44,-467.96 141.12,-670.28 320.68,-685.32 475.34,-1511.94 740.83,-2081.39 145.59,-312.29 282.26,-1270.27 529.17,-1411.11 26.12,30.76 44.43,39.8 70.55,70.56 -194.57,234.22 -271.99,949.92 -423.33,1270 -403.8,853.97 -587.29,1886.3 -917.22,2822.22 -154.62,438.6 -154.85,872.89 -317.5,1270 58.79,0 117.59,0 176.38,0 118.63,-74.67 252.23,-28.72 423.34,-70.56 322.53,-78.86 664.02,-167.51 987.78,-246.94 164.61,-11.76 329.27,-23.52 493.89,-35.28 735.52,-275.46 1646.49,-358.18 2469.44,-564.44 117.58,0 235.2,0 352.78,0 287.29,-65.51 719.2,-115.43 917.22,-176.39 327.16,-100.72 853.14,10.22 1199.43,-70.56 305.65,-71.29 696.42,-136.88 1023.06,-211.67 129.34,0 258.72,0 388.06,0 285.22,-68.85 539.95,-181.8 846.66,-246.94 110.21,-568.87 405.75,-1135.97 599.72,-1622.78 270.83,-679.68 393.15,-1316.17 670.28,-1975.55 256.71,-610.78 847.9,-1465.95 846.67,-2187.23 -430.58,-6.33 -1031.5,54.2 -1340.56,211.67 -235.16,23.52 -470.39,47.04 -705.55,70.56 -339.55,83.39 -724.84,160.12 -1058.34,246.94 -199.88,11.76 -399.83,23.52 -599.72,35.28 -484.9,179.96 -1135.28,252.74 -1658.04,388.05 -117.58,0 -235.2,0 -352.78,0 -448.78,119.28 -1052.01,252.31 -1516.95,388.06 -199.88,23.52 -399.83,47.04 -599.72,70.56 0,23.51 0,47.04 0,70.55 -89.02,48.34 -197.81,18.48 -246.94,0 -369.46,181.32 -791.42,174.26 -1234.72,317.5 -114.47,36.99 -136.82,113.32 -282.23,141.11 0,-47.03 0,-94.08 0,-141.11 432.94,-100.18 1006.38,-229.09 1411.11,-388.05 295.95,-116.24 616.43,-20.12 917.23,-141.12 430.77,-173.27 1193.66,-369.14 1728.61,-388.05 -6.89,-82.11 -6.8,-99.68 -35.28,-141.11 -52.8,-169.6 -230.01,-388.76 -423.33,-423.34 -183.33,110.82 -739.85,181.05 -917.23,141.12 -730.62,239.91 -1679.23,260.99 -2398.88,599.72 -156.64,73.73 -927.99,161.83 -952.51,141.11 -60.45,-41.33 -137,-71.52 -176.38,-141.11 1164.85,-145.2 2381.97,-447 3421.94,-740.84 328.43,-92.79 796.9,-89.23 1199.44,-211.66 181.78,-55.29 315.5,-226.58 493.89,-282.22 277.12,-86.45 488.29,110.72 705.56,70.55 659.62,-121.96 1475.42,-312.95 2116.66,-352.78 0,0 666.25,-175.4 670.27,-176.39 410.26,-100.15 1447.01,-272.89 1763.89,-246.94 105.97,8.68 300.55,-130.54 458.61,-35.28 266.64,99.62 414.55,394.48 529.17,529.17 36.02,-28.37 9.67,-12.52 70.56,-35.28 -11.76,23.52 -23.52,47.04 -35.28,70.56 11.76,0 23.52,0 35.28,0 25.15,-19.95 1.49,-50.88 70.55,-35.28 0,11.76 0,23.52 0,35.28 30.95,45.67 31.55,87.02 35.28,176.39 -126.44,185.59 -76.02,330.74 -211.67,599.72 -680.69,1349.79 -1013.01,3001.87 -1622.77,4445 -95.87,226.87 -44.07,439.52 -141.12,670.28 -68.4,162.64 -245.61,618.98 -282.22,776.11 -20.85,89.51 64.46,72.13 70.56,105.83 14.89,82.26 -111.36,201.18 -35.28,211.67 -82.31,0 -164.64,0 -246.94,0 0,-23.52 0,-47.04 0,-70.56 38.22,-32.06 2.98,2.75 35.27,-35.28 35.28,0 70.56,0 105.84,0z"/>
   </g>
   <g>
    <path class="fil0" d="M16168.77 5226.15c0,-35.27 0,-70.55 0,-105.83 -277.82,-103.97 -289.92,-372.91 -670.28,-388.05 -162.85,96 -388.61,-3.37 -599.72,70.55 -156.3,54.73 -460.65,102.36 -776.11,176.39 -211.65,11.76 -423.36,23.52 -635,35.28 -418.08,111.99 -1024.18,233.39 -1446.39,352.78 -277.71,78.52 -695.71,-4.3 -917.22,141.11 -28.32,41.61 -27.28,59.31 -35.28,141.11 111.3,139.73 143.98,343.34 352.78,388.05 385.57,-240.26 1064.73,-132.22 1552.22,-282.22 216.31,-66.56 596.89,-119.13 846.66,-176.39 176.38,-11.76 352.8,-23.52 529.17,-35.28 488.22,-181.24 1177.55,-303.87 1799.17,-317.5z"/>
   </g>
   <g>
    <path class="fil0" d="M10277.39 5578.93c-101.16,68.82 -294.38,71.97 -458.61,70.56 -43.21,80.48 -57.79,79.4 -70.56,211.66 111.53,116.71 163.55,276.77 352.78,317.5 121.49,-280.74 583.5,-265.63 705.55,-458.61 11.75,0 23.51,0 35.27,0 0,-11.75 0,-23.52 0,-35.27 -132.85,6.77 -323.48,-91.86 -564.43,-105.84z"/>
   </g>
   <g>
    <path class="fil0" d="M10771.28 5825.88c-128.73,155.24 -484.69,226.62 -564.45,317.5 49.72,43.12 -32.53,78.82 -70.55,141.11 70.55,0 141.12,0 211.66,0 197.89,-131.98 548.94,-77.75 740.83,-211.67 28.37,-36.02 12.52,-9.66 35.28,-70.55 -115.78,-73.81 -195.99,-118.87 -352.77,-176.39z"/>
   </g>
   <g>
    <path class="fil0" d="M10065.72 6213.93c-11.76,23.52 -23.52,47.04 -35.28,70.56 61.52,-49.38 35.28,-70.56 35.28,-70.56z"/>
   </g>
   <g>
    <path class="fil0" d="M12535.16 7342.82c29.21,114.48 -17.29,53.9 70.55,105.83 0,-11.75 0,-23.51 0,-35.27 137.29,-197.12 125.64,-489.54 211.67,-740.84 61.88,22.25 34.27,6.81 70.55,35.28 87.05,45.67 24.03,-15.14 70.56,70.56 6.61,94.79 -212.28,915.12 -317.5,1199.44 -168.22,-29.02 -325.88,-4.57 -493.89,-35.28 -61.55,-122.54 -100.68,-153.86 -105.83,-352.77 85.21,-65.11 113.85,-159.98 211.66,-211.67 59.62,-40.29 172.73,-37.6 282.23,-35.28z"/>
   </g>
   <g>
    <path class="fil0" d="M4703.5 6707.82c35.27,0 70.56,0 105.83,0 151.63,274.37 585.59,397.17 670.28,705.56 -73.23,-13.13 -67.89,-8.54 -105.83,-35.28 -196.67,-71.41 -405.76,-303.62 -529.17,-458.61 -35.27,11.76 -70.56,23.52 -105.83,35.28 33.92,62.3 44.35,59.28 70.55,141.11 -111.41,81.42 -254.98,412.81 -282.22,458.61 73.9,136.78 -93.39,389.11 -141.11,529.16 -142.85,419.31 -228.91,879.07 -352.78,1270 -152.41,481.05 -209.56,1007.19 -388.05,1446.39 -109.67,269.84 -32.62,537.14 -141.11,811.39 -80.23,202.8 -275.26,713.84 -246.95,881.95 37.35,221.81 -295.61,542.89 -176.39,881.94 69.28,197.03 287.6,287.88 352.78,529.17 -35.27,0 -70.56,0 -105.83,0 -116.36,-210.71 -368.71,-228.87 -423.34,-493.89 -45.47,-69.49 -64.04,-332.76 -35.27,-458.61 107.01,-468.17 159.69,-904.76 317.5,-1340.56 252.93,-698.5 480.32,-1536.53 740.83,-2257.78 92.01,-254.74 38.69,-492.14 141.11,-740.83 242.48,-588.78 507.75,-1333.68 635,-1905z"/>
   </g>
   <g>
    <path class="fil0" d="M11864.88 6848.93c35.27,11.76 70.56,23.52 105.83,35.28 -22.25,61.88 -6.8,34.27 -35.28,70.56 -45.67,87.04 15.14,24.02 -70.55,70.55 0,-11.76 0,-23.52 0,-35.28 -39.43,-69.94 -21.03,-63.78 0,-141.11z"/>
   </g>
   <g>
    <path class="fil0" d="M10877.1 6884.21c35.27,0 70.56,0 105.83,0 77.35,145.64 74.95,392.36 70.56,635 79.89,102.77 143.02,599.77 70.56,740.83 -22.25,61.88 -6.81,34.27 -35.28,70.56 0,-11.76 0,-23.52 0,-35.28 -117.92,-98.96 -104.51,-302.39 -141.11,-493.89 -11.76,0 -23.52,0 -35.28,0 -92.39,117.97 -291.03,165.58 -458.6,105.84 7.49,81.37 -26.44,316.57 -105.84,423.33 -37.85,26.52 -33.35,21.21 -105.83,35.28 -11.76,-35.28 -23.52,-70.56 -35.28,-105.84 70,-87.44 41.1,-171.5 105.84,-282.22 193.94,-331.75 415.26,-712.96 564.43,-1093.61z"/>
   </g>
   <g>
    <path class="fil0" d="M9219.05 8648.1c-126.22,-0.8 -190.98,-16.32 -282.22,-35.28 0,-23.51 0,-47.04 0,-70.55 -142.76,-224.04 141.78,-477.93 35.28,-705.56 -37.3,-79.72 -69.65,29.22 -70.56,-70.56 0,-23.51 0,-47.03 0,-70.55 328.82,-57.4 157.48,-443.4 458.62,-529.17 22.25,61.88 6.8,34.27 35.27,70.56 -44.19,135.73 -130.52,209.65 -176.39,352.78 139.54,26.05 113.3,3.31 141.12,141.11 -70.55,23.51 -141.12,47.04 -211.67,70.55 -19.41,253.7 -106.66,476.75 -70.56,705.56 103.47,-13.84 44.22,-57.72 105.84,35.28 26.52,37.85 21.21,33.35 35.27,105.83z"/>
   </g>
   <g>
    <path class="fil0" d="M10947.66 7695.6c-11.76,-117.58 -23.52,-235.2 -35.28,-352.78 -23.52,0 -47.04,0 -70.56,0 0,23.52 0,47.04 0,70.56 -88.32,94.69 -152.71,192.15 -176.38,352.77 23.52,0 47.04,0 70.56,0 59.3,-47.41 110.88,-57.75 211.66,-70.55z"/>
   </g>
   <g>
    <path class="fil0" d="M11653.21 7378.1c112.81,41.18 141.32,96.42 176.39,211.67 -82.29,129.06 -53.13,371.45 -141.11,493.88 -37.85,26.52 -33.36,21.22 -105.83,35.28 0,-23.51 0,-47.04 0,-70.55 -64.77,-109.88 43.86,-488.6 70.55,-670.28z"/>
   </g>
   <g>
    <path class="fil0" d="M12358.77 7483.93c-111.63,103.17 -165.73,58.73 -176.39,282.22 23.51,0 47.04,0 70.55,0 41.61,28.32 59.32,27.28 141.12,35.28 79.13,-83.93 111.97,-61.79 141.11,-211.66 -94.01,-40.72 -74.21,-67.6 -176.39,-105.84z"/>
   </g>
   <g>
    <path class="fil0" d="M6926 7766.15c35.27,11.76 70.56,23.52 105.83,35.28 2.63,107.32 26.66,96.82 0,141.11 -41.61,28.32 -59.31,27.28 -141.11,35.28 0,-11.76 0,-23.52 0,-35.28 32.94,-56.3 11.6,-97.49 35.28,-176.39z"/>
   </g>
   <g>
    <path class="fil0" d="M6220.44 8401.15c10.37,82.17 15.93,87.39 35.28,141.12 -470.21,40.78 -491.69,198.27 -564.44,635 -61.88,22.25 -34.27,6.8 -70.56,35.27 -61.88,-22.25 -34.27,-6.8 -70.55,-35.27 -26.52,-37.85 -21.22,-33.36 -35.28,-105.84 189.56,-249.11 299.67,-781.53 352.78,-1128.89 270.99,-9.3 453.28,-111.56 635,-105.83 0,47.03 0,94.08 0,141.11 -11.76,0 -23.52,0 -35.28,0 0,11.76 0,23.52 0,35.28 -149.07,-23.23 -295.65,59.75 -458.61,105.83 -36.89,142.69 -88.8,177.23 -105.84,352.78 23.52,0 47.04,0 70.56,0 66.84,-53.65 126.63,-63.1 246.94,-70.56z"/>
   </g>
   <g>
    <path class="fil0" d="M8337.11 7942.54c70.55,0 141.12,0 211.67,0 19.67,56.57 28.23,84.8 35.27,176.39 -11.75,0 -23.51,0 -35.27,0 0,11.76 0,23.52 0,35.28 -122.55,-4.63 -283.36,-11.79 -352.78,35.28 28.37,36.02 12.52,9.66 35.28,70.55 250.25,38.8 362.91,75.19 352.77,388.06 -57.26,44.23 -70.8,74.14 -105.83,141.11 -161.66,23.8 -305.56,59.62 -423.33,-35.28 -28.32,-41.61 -27.27,-59.31 -35.28,-141.11 11.76,0 23.52,0 35.28,0 0,-11.76 0,-23.52 0,-35.28 152.75,66.72 175.06,42.65 352.78,0 0,-23.51 0,-47.04 0,-70.55 -187.92,-87.58 -377.55,-66.54 -388.06,-352.78 77.66,-58.71 71.46,-100.04 176.39,-141.11 30.35,-22.88 110.93,-47.19 141.11,-70.56z"/>
   </g>
   <g>
    <path class="fil0" d="M7384.61 8189.49c0,47.03 0,94.08 0,141.11 178.82,-31.06 227.71,-97.7 458.61,-105.83 0,23.51 0,47.04 0,70.55 26.52,37.85 21.21,33.36 35.28,105.83 -115.7,-4.12 -253.44,-8.32 -317.5,35.28 -262.97,97.24 -244.08,385.46 -493.89,423.34 -2.65,-215.51 73.17,-497.9 176.39,-635 41.61,-28.32 59.31,-27.28 141.11,-35.28z"/>
   </g>
   <g>
    <path class="fil0" d="M6679.06 8365.88c108.29,48.61 102.53,-4.86 105.83,211.66 -74.07,98.43 -118.71,287.05 -176.39,388.06 -38.23,-32.06 -2.99,2.75 -35.28,-35.28 -68.35,-58.81 -58.85,-50.76 -70.55,-176.39 69.51,-85.98 96.59,-206.62 105.83,-352.78 61.88,-22.24 34.27,-6.8 70.56,-35.27z"/>
   </g>
   <g>
    <path class="fil0" d="M12147.1 8577.54c35.27,0 70.56,0 105.83,0 -7.87,134.54 -31.6,250.26 -70.55,352.78 55.75,111.86 124.85,58.79 141.11,246.95 -38.23,32.05 -2.99,-2.76 -35.28,35.27 -100.25,-11.29 -73.01,-37.25 -141.11,0 -112.09,169.7 -105.56,428.39 -176.39,635 -35.27,-11.75 -70.56,-23.52 -105.83,-35.27 0,-58.79 0,-117.6 0,-176.39 81.95,-101 104.52,-240.42 105.83,-423.34 -38.23,-32.05 -2.99,2.76 -35.28,-35.27 -54.53,39.96 -29.72,38.26 -105.83,70.55 -33.92,-62.3 -44.35,-59.28 -70.55,-141.11 97,-33.8 230.9,-53.16 282.22,-141.11 75.81,-83.36 98.18,-237.89 105.83,-388.06z"/>
   </g>
   <g>
    <path class="fil0" d="M11370.99 8824.49c64.5,55.32 49.23,31.11 70.56,141.11 -23.52,0 -47.04,0 -70.56,0 -23.52,-35.27 -47.04,-70.56 -70.56,-105.83 61.88,-22.25 34.27,-6.81 70.56,-35.28z"/>
   </g>
   <g>
    <path class="fil0" d="M10242.11 9565.32c-283.14,32.22 -368.2,191.51 -352.78,529.17 -50.97,65.25 -25.19,94.67 -105.83,141.11 0,-23.52 0,-47.04 0,-70.56 -127.85,-192.14 174.29,-1081.55 246.94,-1270 35.28,23.52 70.56,47.04 105.84,70.56 -51.67,140.02 -92.49,281.73 -105.84,458.61 23.52,0 47.04,0 70.56,0 121.31,-130.47 324.57,-316.74 493.89,-388.06 0,11.76 0,23.52 0,35.28 57.28,47.62 39.56,22.57 70.55,105.84 -107.54,63.79 -124.35,100.16 -246.94,70.55 1.28,91.65 45.78,80.23 -70.56,141.11 0,11.76 0,23.52 0,35.28 -23.51,-11.76 -47.04,-23.52 -70.55,-35.28 0,11.76 0,23.52 0,35.28 118.86,156.17 234.67,352.53 246.94,599.72 -23.51,0 -47.04,0 -70.55,0 0,-23.51 0,-47.04 0,-70.55 -105.98,-83.51 -187.97,-222.24 -211.67,-388.06z"/>
   </g>
   <g>
    <path class="fil0" d="M11194.6 9212.54c122.88,48.25 108.43,80.56 105.83,246.95 -69.65,98.55 -80.49,323.32 -105.83,458.61 -11.76,0 -23.52,0 -35.28,0 -36.02,-28.37 -9.66,-12.52 -70.55,-35.28 0,-105.82 0,-211.68 0,-317.5 57.67,-82.42 70.26,-251.72 105.83,-352.78z"/>
   </g>
   <g>
    <path class="fil0" d="M7172.94 9600.6c-42.67,272.89 -138.69,305.88 -141.11,705.55 128.41,-14.21 520.55,-116.58 529.17,-105.83 64.5,55.32 49.23,31.12 70.55,141.11 -181.71,193.41 -88.21,701.29 -282.22,881.95 -113.91,86.15 -412.71,109.8 -564.44,141.11 2.11,171.65 -29.3,462.38 -141.11,529.16 -12.2,9.92 -799.08,247.22 -917.22,282.23 -35.42,-96.94 -50.81,-77.45 -105.84,-141.11 86.3,-122.18 127.86,-470.42 141.11,-635 -23.51,0 -47.04,0 -70.55,0 -91.77,69.74 -348.57,140.39 -423.34,105.83 -30.95,-45.68 -31.55,-87.02 -35.27,-176.39 128.23,-207.54 93.4,-623.7 176.38,-846.67 194.09,-6.13 444.03,-48.32 564.45,-141.11 126.23,-136.16 166.02,-464.71 211.67,-670.28 176.37,0 352.79,0 529.16,0 97.76,-65.2 307.75,-70.2 458.61,-70.55z"/>
   </g>
   <g>
    <path class="fil0" d="M15145.71 9600.6c82.31,35.27 164.64,70.56 246.95,105.83 0,11.76 0,23.52 0,35.28 -35.28,0 -70.56,0 -105.84,0 -95.84,-87.33 -135.94,-40.19 -141.11,-141.11z"/>
   </g>
   <g>
    <path class="fil0" d="M6291 9882.82c-33.62,181.22 -98.67,373.1 -105.83,670.28 -208.82,17.02 -526.08,39.82 -670.28,141.11 -66.09,97.37 -124.06,526.52 -105.84,564.44 51.35,89.7 -7.65,39.8 105.84,70.56 96.94,-91.7 228.14,-107.91 423.33,-105.83 0,23.51 0,47.04 0,70.55 53.97,117.78 -77.69,526.78 -105.83,705.56 241.37,-32.92 430.81,-139.99 705.55,-176.39 26.11,-179.2 69.78,-317.44 70.56,-564.45 177.09,-49.02 424.74,-98.4 635,-141.11 32.91,-269.66 151.18,-420.55 176.39,-705.55 -56.57,-19.68 -84.8,-28.24 -176.39,-35.28 -90.88,86.05 -207.04,105.48 -388.06,105.83 0,-23.51 0,-47.04 0,-70.55 -105.01,-187.79 202.71,-492.02 105.84,-635 -41.61,-28.32 -59.32,-27.27 -141.11,-35.28 -93.53,110.62 -341,132.43 -529.17,141.11z"/>
   </g>
   <g>
    <path class="fil0" d="M15392.66 9741.71c133.38,19.71 298.63,100.05 388.05,176.39 -172.16,-4.89 -306.12,-32.93 -352.78,-105.83 -28.37,-36.03 -12.52,-9.67 -35.27,-70.56z"/>
   </g>
   <g>
    <path class="fil0" d="M15145.71 9847.54c86.89,25.68 123.33,50.85 176.39,105.84 77.23,-31.71 50.91,-30.42 105.83,-70.56 -2.63,107.32 -26.66,96.82 0,141.11 72.64,68.64 181.62,99.91 282.23,141.11 0,11.76 0,23.52 0,35.28 -11.76,0 -23.52,0 -35.28,0 0,11.76 0,23.52 0,35.28 -206.3,-107.14 -407.27,-194.92 -529.17,-388.06z"/>
   </g>
   <g>
    <path class="fil0" d="M12076.55 10235.6c57.28,47.62 39.55,22.57 70.55,105.83 -11.76,0 -23.52,0 -35.28,0 -144.86,103.69 -315.78,124.72 -493.89,141.11 0,-11.75 0,-23.52 0,-35.27 28.14,-34.59 51.02,-96.79 70.56,-141.12 150.79,28.53 300.2,28.86 388.06,-70.55z"/>
   </g>
   <g>
    <path class="fil0" d="M15463.21 10941.15c-200.46,-44.51 -171.07,-170.61 -388.05,-211.66 0,11.76 0,23.52 0,35.28 47.03,129.34 94.07,258.71 141.11,388.05 -11.76,0 -23.52,0 -35.28,0 0,-11.76 0,-23.52 0,-35.28 -107.84,-108.88 -142.31,-235.07 -141.11,-458.61 70.55,11.76 141.12,23.52 211.67,35.28 0,-47.03 0,-94.08 0,-141.11 -70.1,-61.98 -101.94,-193.7 -141.12,-282.22 47.04,0 94.08,0 141.12,0 58.89,60.96 131.3,100.94 211.66,141.11 0,23.51 0,47.04 0,70.55 -23.51,0 -47.04,0 -70.55,0 -57.82,-78.68 -60.29,-106.15 -141.11,-70.55 -11.76,0 -23.52,0 -35.28,0 65.37,197.55 207.64,293.47 246.94,529.16z"/>
   </g>
   <g>
    <path class="fil0" d="M11370.99 10341.43c35.27,0 70.56,0 105.83,0 0,58.79 0,117.6 0,176.39 -47.03,0 -94.08,0 -141.11,0 0,-23.51 0,-47.04 0,-70.55 26.52,-37.85 21.21,-33.36 35.28,-105.84z"/>
   </g>
   <g>
    <path class="fil0" d="M11229.88 10376.71c0,35.27 0,70.56 0,105.83 -23.52,-11.75 -47.04,-23.52 -70.56,-35.27 0,11.75 0,23.52 0,35.27 8.87,34.15 27.66,13.38 0,35.28 -36.02,28.37 -9.66,12.52 -70.55,35.28 0,-47.03 0,-94.08 0,-141.11 38.22,-32.06 2.99,2.75 35.28,-35.28 35.27,0 70.55,0 105.83,0z"/>
   </g>
   <g>
    <path class="fil0" d="M15639.6 10517.82c-47.03,0 -94.08,0 -141.11,0 0,-23.51 0,-47.04 0,-70.55 111.21,-23.78 73.99,-23.51 141.11,-70.56 0,47.03 0,94.08 0,141.11z"/>
   </g>
   <g>
    <path class="fil0" d="M10877.1 10411.99c42.57,74.48 17.03,78.72 0,176.39 -149.56,-74.04 -70.39,-61.86 0,-176.39z"/>
   </g>
   <g>
    <path class="fil0" d="M10630.17 10447.27c87.04,45.67 24.02,-15.14 70.55,70.55 8.87,34.15 27.66,13.38 0,35.28 -63,42.48 -218.1,82.84 -282.22,105.83 0,-23.51 0,-47.04 0,-70.55 32.21,-32.88 46.94,-61.91 70.55,-105.84 118.04,7.5 84.65,75.94 141.12,-35.27z"/>
   </g>
   <g>
    <path class="fil0" d="M9924.61 10588.38c87.05,45.67 24.02,-15.14 70.56,70.55 11.75,0 23.52,0 35.27,0 34.94,35.62 -34.76,34.87 -35.27,35.28 -47.63,57.28 -22.57,39.56 -105.84,70.56 11.76,-58.79 23.52,-117.6 35.28,-176.39z"/>
   </g>
   <g>
    <path class="fil0" d="M9430.72 10658.93c69.92,16.08 75.5,61.37 105.83,70.56 68.59,20.77 97.51,-72.86 176.39,-35.28 11.76,0 23.52,0 35.28,0 -22.25,61.88 -6.8,34.27 -35.28,70.56 -41.61,28.31 -59.31,27.27 -141.11,35.27 -32.88,-32.2 -61.9,-46.94 -105.83,-70.55 -13.66,89.24 20.49,55.67 -105.83,70.55 -81.62,109.08 -174.67,105.57 -317.5,141.11 0,-23.51 0,-47.03 0,-70.55 81.47,-76.2 -17.23,-45.37 35.27,-105.83 142.08,-91.86 249.92,2.12 352.78,-105.84z"/>
   </g>
   <g>
    <path class="fil0" d="M8866.28 10764.77c23.51,0 47.04,0 70.55,0 0,47.03 0,94.07 0,141.11 -38.22,32.05 -2.99,-2.75 -35.28,35.27 -23.51,0 -47.03,0 -70.55,0 0,-23.51 0,-47.03 0,-70.55 26.52,-37.85 21.21,-33.36 35.28,-105.83z"/>
   </g>
   <g>
    <path class="fil0" d="M11653.21 10905.88c-114.48,-29.21 -53.9,17.29 -105.83,-70.56 28.37,-36.02 12.52,-9.66 35.28,-70.55 38.22,32.05 2.98,-2.76 35.27,35.27 26.52,37.85 21.22,33.36 35.28,105.84z"/>
   </g>
   <g>
    <path class="fil0" d="M11759.05 10764.77c141.26,44.11 243.18,46.92 317.5,0 0,35.27 0,70.56 0,105.83 -23.52,0 -47.04,0 -70.56,0 -84.35,49.07 -188.19,9.28 -282.22,35.28 10.36,-82.16 15.92,-87.39 35.28,-141.11z"/>
   </g>
   <g>
    <path class="fil0" d="M11159.32 10870.6c23.52,0 47.04,0 70.56,0 0,23.52 0,47.04 0,70.55 -96.35,-25.95 -64.37,25.45 -70.56,-70.55z"/>
   </g>
   <g>
    <path class="fil0" d="M10947.66 10905.88c57.28,47.62 39.55,22.56 70.55,105.83 -35.27,0 -70.56,0 -105.83,0 11.76,-35.27 23.52,-70.56 35.28,-105.83z"/>
   </g>
   <g>
    <path class="fil0" d="M10242.11 10976.43c131.53,1.9 317.5,0 317.5,0 26.52,37.85 21.21,33.36 35.28,105.84 -38.23,32.05 -2.99,-2.76 -35.28,35.27 -146.58,-14.28 -107.77,-4.4 -246.94,35.28 1.01,-70.55 36.09,-9.93 0,-70.55 -65.29,-12.68 -56.22,20.55 -70.56,-105.84z"/>
   </g>
   <g>
    <path class="fil0" d="M10736 10941.15c76.6,68.86 72.67,36.84 0,105.84 -5.51,49.58 -35.28,35.28 -35.28,35.28 -42.7,-41.4 32.21,-125.83 35.28,-141.12z"/>
   </g>
   <g>
    <path class="fil0" d="M9818.78 11082.27c35.27,11.75 70.56,23.52 105.83,35.27 -83.07,55.19 -141.26,70.51 -105.83,-35.27z"/>
   </g>
   <g>
    <path class="fil0" d="M9607.11 11117.54c73.23,13.13 67.89,8.54 105.83,35.28 -11.75,0 -23.52,0 -35.27,0 -36.03,28.37 -9.67,12.52 -70.56,35.28 0,-23.52 0,-47.04 0,-70.56z"/>
   </g>
   <g>
    <path class="fil0" d="M9395.44 11152.82c114.48,29.21 53.9,-17.29 105.84,70.56 -87.05,45.67 -24.03,-15.14 -70.56,70.55 -61.14,-79.11 -48.27,-56.13 -35.28,-141.11z"/>
   </g>
   <g>
    <path class="fil0" d="M15216.27 11152.82c35.27,11.76 70.56,23.52 105.83,35.28 0,11.76 0,23.52 0,35.28 -35.27,0 -70.56,0 -105.83,0 0,-23.52 0,-47.04 0,-70.56z"/>
   </g>
   <g>
    <path class="fil0" d="M8972.11 11188.1c84.33,24.82 29.88,48.04 70.56,70.55 33.47,18.53 119.2,-63.08 176.38,-35.27 61.89,22.25 34.27,6.8 70.56,35.27 -11.76,0 -23.52,0 -35.28,0 -11.76,23.52 -23.52,47.04 -35.28,70.56 -90.27,-13.36 -244.81,2.71 -246.94,0 -70.88,-122.01 52.28,-16.62 0,-141.11z"/>
   </g>
   <g>
    <path class="fil0" d="M8760.44 11258.65c28.32,41.62 27.28,59.32 35.28,141.12 -38.23,32.05 -2.99,-2.76 -35.28,35.27 -23.51,0 -47.04,0 -70.55,0 0,-23.51 0,-47.04 0,-70.55 57.28,-47.62 39.56,-22.57 70.55,-105.84z"/>
   </g>
   <g>
    <path class="fil0" d="M14687.1 11399.77c6.11,212.71 104.74,477.32 35.28,599.72 -29.59,-221.48 -102.29,-314.21 -105.83,-599.72 67.52,-33.72 97.01,-49.25 141.11,-105.84 44.87,31.09 129.84,68.73 176.39,105.84 -82.31,0 -164.64,0 -246.95,0z"/>
   </g>
   <g>
    <path class="fil0" d="M14934.05 11329.21c102.42,-2.12 192.91,-1.71 246.94,35.28 -102.43,2.11 -192.92,1.71 -246.94,-35.28z"/>
   </g>
   <g>
    <path class="fil0" d="M15180.99 11399.77c87.05,45.67 24.02,-15.14 70.56,70.55 107.64,133.5 110.62,351.42 105.83,599.72 -11.76,0 -23.52,0 -35.28,0 7.23,-308.49 -56.47,-456.94 -141.11,-670.27z"/>
   </g>
   <g>
    <path class="fil0" d="M13240.71 11470.32c-122.75,82.57 -308.5,123.96 -352.78,176.39 33.14,63.49 94.34,309.73 141.12,352.78 32.54,-18.57 322.89,32.66 493.88,35.28 77.28,-108.21 147.05,-149.68 176.39,-317.5 -24.05,-27.21 -46.25,-78.73 -70.55,-105.84 -125.44,-104.1 -254.9,-121.2 -388.06,-141.11z"/>
   </g>
   <g>
    <path class="fil0" d="M14898.77 11505.6c23.51,0 47.04,0 70.55,0 -35.1,47.97 -68.04,63.72 -105.83,105.83 71.19,77.61 72.65,159.96 176.39,211.67 42.5,29.71 32.41,12.73 105.83,35.28 0,11.76 0,23.52 0,35.27 -11.76,0 -23.52,0 -35.28,0 -37.85,26.52 -33.35,21.22 -105.83,35.28 -78.46,-122.52 -153.95,-129.2 -176.39,-317.5 -11.76,0 -23.52,0 -35.28,0 -34.93,-35.62 34.77,-34.87 35.28,-35.28 26.12,-30.75 44.43,-39.8 70.56,-70.55z"/>
   </g>
   <g>
    <path class="fil0" d="M15110.43 11611.43c23.52,0 47.04,0 70.56,0 -11.76,70.55 -23.52,141.12 -35.28,211.67 -11.76,0 -23.52,0 -35.28,0 0,-70.55 0,-141.12 0,-211.67z"/>
   </g>
   <g>
    <path class="fil0" d="M14757.66 11999.49c81.31,47.44 64.3,43.02 70.55,70.55 0,11.76 0,23.52 0,35.28 -38.23,-32.06 -2.99,2.75 -35.28,-35.28 -28.37,-36.02 -12.52,-9.66 -35.27,-70.55z"/>
   </g>
   <g>
    <path class="fil0" d="M14863.49 12070.04c82.06,40.03 116.99,75.41 211.67,105.84 0,11.76 0,23.52 0,35.27 -47.04,0 -94.08,0 -141.11,0 -89.35,-90.6 -87.5,-11.75 -70.56,-141.11z"/>
   </g>
   <g>
    <path class="fil0" d="M15251.55 12070.04c87.04,45.67 24.02,-15.13 70.55,70.56 -23.52,0 -47.04,0 -70.55,0 0,11.76 0,23.52 0,35.28 -11.76,0 -23.52,0 -35.28,0 11.76,-35.28 23.52,-70.56 35.28,-105.84z"/>
   </g>
   <g>
    <path class="fil0" d="M15110.43 12175.88c73.23,13.12 67.9,8.53 105.84,35.27 -73.23,-13.12 -67.89,-8.53 -105.84,-35.27z"/>
   </g>
   <g>
    <path class="fil0" d="M12182.38 12211.15c-3.05,169.98 54.69,341.56 35.28,388.06 0,11.76 0,23.52 0,35.28 -286.47,-74.54 -963.81,105.06 -1340.56,176.39 -69.8,-110.07 -99.57,-135.46 -282.21,-141.11 -113.53,-2.53 -583.9,108.36 -670.28,141.11 -164.61,11.76 -329.28,23.52 -493.89,35.27 -299.15,73.42 -672.12,134.15 -952.5,211.67 -282.19,23.52 -564.47,47.04 -846.67,70.56 -486.19,120.16 -1145.15,171.52 -1622.77,352.77 5.3,71.94 25.68,96.17 -35.28,176.39 -136.61,79.26 -261.3,-14.4 -458.61,35.28 -364.28,91.72 -709.9,249.72 -1128.89,282.22 11.76,-82.3 23.52,-164.63 35.28,-246.94 -60.84,-21.14 -111.2,-31.41 -211.67,-35.28 0,-35.27 0,-70.56 0,-105.83 154.13,-52.43 208.92,-105.98 458.61,-105.84 141.25,-96.05 966.31,-313.7 1199.45,-317.5 39.22,125.67 67.88,152.07 211.66,176.39 75.93,-45.34 208.62,3.99 317.5,-35.27 317.73,-114.58 770.42,-160.28 1128.89,-246.95 152.86,-11.76 305.76,-23.52 458.61,-35.28 671.22,-253.26 1582.08,-281.04 2293.06,-493.89 163.92,-49.07 315.21,96.72 388.05,70.56 30.89,-11.09 78.87,-157.41 105.84,-176.39 140.72,-99.04 1143.94,-199.5 1411.1,-211.67z"/>
   </g>
   <g>
    <path class="fil0" d="M14016.82 12528.65c788.51,625.2 902.69,1642.9 917.23,3104.44 -60.84,21.13 -111.2,31.41 -211.67,35.28 -166.29,-320.06 -74.82,-1068.87 -70.56,-1516.94 -104.78,-170.79 -10.44,-495.47 -70.55,-705.55 -88.8,-310.33 -242.65,-476.79 -423.34,-705.56 -58.79,-35.27 -117.59,-70.56 -176.38,-105.83 11.75,-35.28 23.51,-70.56 35.27,-105.84z"/>
   </g>
   <g>
    <path class="fil0" d="M12711.55 12705.04c-35.28,0 -70.56,0 -105.84,0 0,35.28 0,70.56 0,105.84 -656.78,253.85 -665.34,1975.07 -493.89,2716.38 48.58,210.05 173.95,764.45 105.84,917.22 0,11.76 0,23.52 0,35.28 -70.55,-11.76 -141.12,-23.52 -211.67,-35.28 -32.61,-824.99 -539.06,-1575.49 -811.39,-1975.55 -67.93,-99.78 -330.96,-617.19 -282.22,-670.28 -87.97,-90.4 -151.45,-80.23 -176.38,-246.94 -742.08,-15.33 -1725.37,226.29 -2363.61,388.06 -397.37,100.71 -834.87,-21.26 -987.78,317.5 119.08,155.79 161.28,338.25 246.94,529.15 138.83,309.37 362.57,627.03 564.45,881.95 28.1,35.48 170.88,420.8 211.67,458.61 34.14,-8.87 13.37,-27.66 35.27,0 68.88,66.6 76.97,153.03 105.84,176.39 55.27,-43.85 17.99,-22.65 70.55,0 175.27,199.42 141.06,457.44 529.17,458.61 186.96,-120.95 506.19,-18.7 740.83,-105.84 458.69,-170.32 1140.38,-275.04 1693.33,-317.5 0,70.55 0,141.12 0,211.67 -82.17,-10.36 -87.39,-15.92 -141.11,-35.28 -9.83,91.3 16.45,62.61 -141.12,70.56 -162.7,110.61 -404.52,51.88 -634.99,105.83 -500.23,117.11 -1028.1,241.18 -1552.22,282.22 -54.08,86.92 -80.83,80.28 -105.83,211.67 443.93,-50.23 1344.29,-397.12 1728.61,-176.39 297.58,170.92 277.88,779.67 634.99,881.95 -8.51,-275.22 5.65,-263.44 0,-529.17 -98.59,-67.3 -160.45,-168.02 -246.94,-246.94 35.27,-82.31 70.55,-164.64 105.83,-246.95 67.81,19.48 30.22,57.89 70.55,0 26.52,-37.85 21.22,-33.36 35.28,-105.83 273.84,-3.72 386.8,-111.29 564.45,-176.39 258.08,-94.59 490.45,-2.93 705.55,-105.83 135.62,-64.88 262.12,-241 388.06,-317.5 157.22,-95.52 418.06,-137.08 564.44,-211.67 386.19,-196.8 1002.52,50.37 1481.67,-70.56 105.82,-35.27 211.68,-70.56 317.5,-105.83 0,-47.03 0,-94.08 0,-141.11 248.67,-32.21 295.58,-169.38 529.17,-211.67 0,-47.03 0,-94.08 0,-141.11 -97.79,-73.72 -900.58,-941.1 -917.23,-1023.04 -11.76,0 -23.52,0 -35.27,0 0,-11.76 0,-23.52 0,-35.28 11.75,0 23.51,0 35.27,0 45.68,-30.95 87.03,-31.55 176.39,-35.28 70.49,170.33 756.05,1031.28 881.95,1093.6 94.06,0 188.15,0 282.22,0 0,23.52 0,47.04 0,70.56 231.21,246.55 54.33,90 176.39,388.05 11.76,0 23.52,0 35.28,0 52.44,94.38 221.02,329.27 246.94,352.78 0,0 252.76,23.78 317.5,70.56 66.94,72.58 219.96,488.08 176.39,529.16 533.13,469.4 785.49,918.18 1270,1340.56 -2.05,102.52 -34.01,49 0,105.83 89.67,77.38 108.14,24.24 141.11,176.39 -35.27,11.76 -70.56,23.52 -105.83,35.28 -255.95,149.97 -1006.61,36.02 -1340.56,141.11 -300.19,94.46 -789.82,226.13 -1093.61,317.5 -295.64,88.92 -531.45,2.32 -811.39,105.83 -321.5,118.88 -978.63,343.04 -1516.94,352.78 0,129.34 0,258.72 0,388.06 -23.52,0 -47.04,0 -70.56,0 0,105.82 0,211.67 0,317.5 -2.77,318.51 16.99,562.3 -70.55,811.39 -294.17,2.98 -422.12,111 -670.28,141.11 -43.5,-129.65 -125.64,-90.82 -176.39,-176.39 -11.76,-94.07 -23.52,-188.16 -35.28,-282.22 -31.2,-62.26 -146.31,-134 -176.39,-211.67 -116.89,-301.84 5.93,-642.85 -388.05,-670.28 -228.03,241.36 -1115.87,277.82 -1516.94,388.06 -424.79,116.74 -860.54,283.93 -1199.44,388.05 -176.37,23.52 -352.8,47.04 -529.17,70.56 -354.44,184.68 -627.38,338.95 -1164.17,282.22 -153.41,-371.14 -492.84,-722.84 -705.55,-1058.33 -11.76,-58.79 -23.52,-117.6 -35.28,-176.39 -181.4,-337.55 -460.5,-703.04 -670.28,-1023.06 -35.27,-94.06 -70.56,-188.16 -105.83,-282.22 -468.34,-595.41 -828.95,-1190.55 -1164.17,-1693.33 -557.28,-835.85 -915.77,-1690.81 -1552.22,-2328.33 22.25,-61.88 6.81,-34.27 35.28,-70.55 51.71,-89.08 15.53,-54.49 141.11,-70.56 77.63,511.22 546.84,726.09 705.55,1128.88 62.62,158.9 376.31,561.14 564.45,811.39 164.54,218.86 242.19,472.65 388.05,705.55 278.94,445.37 667.03,860.16 952.51,1305.28 69.96,109.1 170.25,246.16 211.66,352.78 -11.76,23.52 -23.52,47.04 -35.28,70.56 45.39,3.01 120.62,-5.23 176.39,70.55 226.53,307.78 473.74,920.92 670.28,1128.89 34.15,-8.86 13.38,-27.66 35.28,0 383.95,472.36 202.36,728.59 1128.89,705.56 210.05,-175.03 561.79,-102.64 846.66,-211.67 788.64,-301.83 1733.19,-376.41 2469.44,-670.28 11.76,-23.51 23.52,-47.04 35.28,-70.55 -192.56,-148.91 -453.27,-777.26 -564.45,-1023.06 -45.92,-101.53 -143.94,-345.57 -105.83,-388.06 -67.03,-67.62 -160.14,-130.43 -211.67,-211.66 -126.19,-198.93 -165.89,-502.02 -423.32,-564.45 0,0 -783.16,24.63 -881.95,70.56 0,23.52 0,47.04 0,70.55 -329.22,47.04 -658.55,94.08 -987.77,141.12 -389.17,151.72 -810.56,221.52 -1234.73,352.77 -248.25,76.83 -684.19,396.02 -987.77,176.39 28.37,-36.02 12.52,-9.66 35.27,-70.55 326.99,92.8 823.92,-288.57 1199.45,-352.78 0,-35.27 0,-70.56 0,-105.83 135.38,-39.56 120.19,-83.42 282.22,-105.84 41.73,72.93 24.13,66.39 105.83,105.84 129.79,-86.61 399.61,-107.92 564.45,-141.12 0,-129.33 0,-258.71 0,-388.05 -199.03,-201.08 -325.49,-780.81 -458.61,-917.22 -36.02,28.37 -9.67,12.52 -70.56,35.27 -30.01,-204.99 -495.5,-1024.29 -635,-1093.61 -34.14,-8.86 -13.38,-27.65 -35.28,0 -47.41,59.3 -57.75,110.9 -70.55,211.67 -47.03,0 -94.08,0 -141.11,0 18.17,398.57 484.45,747.98 529.16,1234.72 -23.51,-11.76 -47.04,-23.52 -70.55,-35.28 0,11.76 0,23.52 0,35.28 11.76,0 23.52,0 35.28,0 17.23,97.27 -19.69,41.64 -70.56,70.56 -63.7,-308.34 -330.82,-550.02 -458.61,-811.39 -23.52,-105.82 -47.04,-211.68 -70.56,-317.5 -338.12,-670.48 -780.54,-1221.01 -1763.89,-1093.6 31.72,255.95 136.57,368.86 458.62,352.78 117.88,-113.34 216.39,-60.22 282.22,-105.84 89.42,69.44 169.54,125.69 211.67,246.94 30.94,45.67 31.54,87.02 35.27,176.39 -47.03,82.3 -94.08,164.63 -141.11,246.94 -129.06,-38.15 -221.15,-70.76 -423.33,-70.56 54.53,230.95 222.1,257.87 246.94,529.17 -23.51,0 -47.04,0 -70.55,0 -93.04,-172.83 -187.44,-390.38 -388.06,-458.61 -27.21,24.06 -78.72,46.26 -105.83,70.56 -101.91,134.85 -72.71,242.88 -282.22,282.22 -103.04,-98.3 -215.91,-184.8 -317.5,-282.22 23.51,-82.31 47.04,-164.64 70.55,-246.95 173.65,-85 422.99,-198.48 493.89,-388.04 -146.6,-56.61 -110.32,-151.55 -246.94,-211.67 0,-11.76 0,-23.52 0,-35.28 -23.52,11.76 -47.04,23.52 -70.56,35.28 0,-11.76 0,-23.52 0,-35.28 -100.36,81.33 -261.16,153.36 -352.78,246.95 -154.55,157.85 -75.26,337.27 -317.5,423.32 0,-11.76 0,-23.52 0,-35.28 -26.52,-37.85 -21.21,-33.36 -35.28,-105.83 119.29,-138.2 171.81,-384.36 317.5,-493.88 106.32,-79.92 342.05,-250.33 458.62,-282.22 246.22,-67.37 1102.75,-22.52 1305.27,141.11 11.76,35.27 23.52,70.56 35.28,105.83 94.07,35.28 188.16,70.56 282.22,105.83 169.2,159.23 126.71,452.56 388.06,529.16 2.45,-308.32 -70.07,-513.47 -105.83,-776.1 100.95,-69.67 106.09,-140.01 246.94,-176.39 230.09,-144.18 604.97,-35.92 881.94,-141.11 686.96,-260.9 1814.8,-401.43 2681.11,-423.33 229.57,529.41 579.17,997.84 740.83,1552.21 23.52,0 47.04,0 70.56,0 0,-94.07 0,-188.16 0,-282.22 79,-132.64 -5.78,-381.25 35.27,-564.44 80.02,-357.03 152.16,-776.2 282.23,-1093.61 35.27,11.76 70.55,23.52 105.83,35.28 -18.89,-53.47 -23.81,-59.74 -35.28,-141.11 23.52,11.76 47.04,23.52 70.56,35.28 0,-11.76 0,-23.52 0,-35.28 -11.76,0 -23.52,0 -35.28,0 -34.93,-35.62 34.76,-34.87 35.28,-35.28 102.7,-152.05 292.91,-266.18 493.89,-317.5 0,35.27 0,70.56 0,105.83z"/>
   </g>
   <g>
    <path class="fil0" d="M4562.39 13586.99c36.02,28.37 9.66,12.52 70.55,35.28 -36.02,-28.37 -9.66,-12.52 -70.55,-35.28z"/>
   </g>
   <g>
    <path class="fil0" d="M12570.43 15280.31c3.57,-293.16 12.31,-643.47 -35.27,-881.93 11.75,0 23.52,0 35.27,0 0,-11.76 0,-23.52 0,-35.28 126.23,17.6 149.65,6.44 317.5,0 36.79,-124.46 69.65,-195.18 70.56,-388.06 -11.76,0 -23.52,0 -35.28,0 0,-11.75 0,-23.52 0,-35.27 82.31,0 164.64,0 246.95,0 133.32,-94.24 517.64,-65.72 599.72,0 53.52,90.71 -2.51,147.32 70.55,246.94 256.47,141.5 428.96,-76.07 423.34,352.78 -27.72,56.68 -3.46,331.87 0,493.88 -94.07,35.27 -188.16,70.56 -282.22,105.83 3.33,108.99 4.95,223.31 -35.28,282.22 -224.78,219.11 -781.16,70.31 -952.5,176.39 -28.37,-36.02 -12.52,-9.66 -35.28,-70.55 -8.51,-22.51 -19.88,-162.81 -35.28,-246.95 -117.58,0 -235.2,0 -352.78,0z"/>
   </g>
   <g>
    <path class="fil0" d="M3362.94 14010.32c66.77,52.4 152.64,114.3 211.67,176.39 -134.73,212.49 -98.69,1386.22 -70.55,1481.66 -96.44,285.26 -104.23,644.9 -35.28,917.22 116.25,459.12 -74.89,992.03 70.55,1375.83 119.68,315.83 417.02,586.36 599.72,846.67 210.75,300.26 339.65,623.9 564.45,917.22 243.54,317.78 1033.22,1319.55 987.78,1481.67 223.68,8.21 350.4,392.58 493.89,599.72 308.84,445.88 645.77,924.95 952.5,1375.83 144.95,213.09 139.15,497.19 388.05,599.73 36.02,28.37 9.67,12.52 70.56,35.27 9.37,-150.2 42.56,-364.76 70.55,-493.88 148.12,-683.17 -93.19,-1597.93 35.28,-2257.78 53.47,-18.89 59.74,-23.81 141.11,-35.28 6.15,111.02 18.19,52.97 0,141.11 80.11,-0.06 67.35,-12.13 141.11,70.56 -72.56,127.09 37.8,239.27 0,423.33 -168.11,818.75 166.89,1917.18 -105.83,2610.56 -23.52,-11.76 -47.04,-23.52 -70.56,-35.28 6.61,112.74 26.27,43.55 -35.27,141.11 -117.9,-10.25 -73.72,-9.17 -211.67,0 -51.93,-139.14 -169.57,-147.93 -246.95,-246.95 -80.64,-103.18 -65.17,-247.49 -141.11,-352.77 -23.51,0 -47.04,0 -70.55,0 11.76,-35.28 23.52,-70.56 35.28,-105.84 -51.47,-3.26 -484.1,-608.43 -564.45,-740.83 -25.8,-42.53 0,-176.39 0,-176.39 -36.82,-34.32 -109.25,4.88 -141.11,-35.28 -156.38,-197.09 -213.09,-422.22 -352.78,-635 -105.15,-160.18 -292.77,-330.96 -388.05,-493.89 -11.76,-58.79 -23.52,-117.59 -35.28,-176.38 -23.52,0 -47.04,0 -70.56,0 -49.5,-56.04 -25.27,-109.01 -70.55,-176.39 -25.59,-38.08 -115.71,-38.42 -141.11,-70.56 -73.99,-93.6 -44.44,-210.13 -105.84,-317.5 -84.82,-148.33 -259.77,-309.47 -352.77,-458.61 -178.42,-286.13 -272.37,-572.09 -458.62,-846.67 -101.82,-150.11 -383.08,-380.02 -458.61,-529.16 11.76,-35.28 23.52,-70.56 35.28,-105.84 -146,7.68 -722.8,-899.94 -811.39,-1058.33 87.05,-45.67 24.03,15.14 70.56,-70.56 -144.86,-136.31 -0.2,-725.69 0,-1023.05 0.66,-977.88 29.16,-2082.19 70.55,-2751.66z"/>
   </g>
   <g>
    <path class="fil0" d="M12711.55 14539.49c-6.4,221.17 -0.66,306.1 0,564.43 117.58,0 235.19,0 352.77,0 4.84,119.3 17.44,181.91 70.56,246.95 81.56,54.35 285.94,39.48 423.33,35.27 98.7,-75.98 170.48,-56.74 282.22,-70.55 -11.75,-117.58 -23.52,-235.2 -35.27,-352.78 235.12,2.6 257.75,-41.42 246.94,-282.22 40.29,-59.61 37.6,-172.71 35.28,-282.21 -161.6,2.57 -306.88,-11.29 -423.33,-35.28 -27.49,-79.07 -36.02,-191.6 -35.28,-317.5 -152.86,11.76 -305.76,23.52 -458.61,35.28 0,11.76 0,23.52 0,35.27 -11.76,0 -23.52,0 -35.28,0 12.71,252.18 68.9,342.87 -141.11,388.06 -59.62,40.29 -172.73,37.6 -282.22,35.28z"/>
   </g>
   <g>
    <path class="fil0" d="M9677.67 14327.82c0,35.28 0,70.56 0,105.83 -178.45,19.29 -462.98,144.34 -529.17,282.22 -28.32,41.61 -27.27,59.31 -35.28,141.11 193.57,88.67 214.16,404.71 388.06,529.16 34.58,28.14 96.78,51.02 141.11,70.56 115.46,-229.56 437.06,-115.31 458.61,-458.61 -104.32,-74.19 -212.15,-247.8 -282.22,-352.78 53.46,-18.89 59.74,-23.81 141.11,-35.28 44.73,157.11 109.58,241.04 317.5,246.95 114.77,-109.55 239.07,-209.61 352.78,-317.49 -0.81,-126.22 -16.32,-190.99 -35.28,-282.22 -60.84,-21.14 -111.2,-31.41 -211.67,-35.28 -118.75,104.16 -422.53,187.88 -599.72,211.66 0,-23.51 0,-47.03 0,-70.55 236.61,-145.45 376.32,-280.06 776.11,-282.22 122.42,196.38 267.71,282.52 282.21,599.71 -28.37,36.02 -12.52,9.67 -35.27,70.55 -213.13,51.79 -499.35,142.72 -529.16,388.06 43.85,55.28 22.64,18 0,70.56 -176.7,218.72 -547.58,254.43 -740.84,458.61 -35.27,-11.76 -70.55,-23.52 -105.83,-35.28 -78.86,-333.07 -322.6,-486.66 -529.17,-846.67 78.91,-65.78 83.17,-159.03 176.39,-211.65 148.66,-122.35 357.72,-228.24 599.73,-246.95z"/>
   </g>
   <g>
    <path class="fil0" d="M9642.39 14574.77c47.03,0 94.08,0 141.11,0 0,11.75 0,23.51 0,35.26 -11.76,0 -23.52,0 -35.28,0 0,11.76 0,23.52 0,35.28 -35.27,11.76 -70.56,23.52 -105.83,35.28 0,-35.27 0,-70.56 0,-105.82z"/>
   </g>
   <g>
    <path class="fil0" d="M6044.06 14610.03c-124.51,117.6 -534.11,78.68 -599.73,141.11 -68.14,64.85 -76.87,176.32 -141.11,246.95 -47.15,51.85 -194.6,97.36 -246.94,141.11 22.25,61.88 6.8,34.27 35.27,70.56 35.11,47.96 68.05,63.71 105.84,105.83 61.88,-22.25 34.27,-6.81 70.55,-35.28 107.44,-69.53 46.58,-152.54 176.39,-211.67 91.59,-81.78 434.43,-198.76 599.73,-176.38 74.01,10.01 56.35,70.15 141.11,35.27 68.35,-58.8 58.84,-50.76 70.55,-176.39 -41.94,-37.82 -58.1,-70.68 -105.83,-105.83 -37.85,-26.52 -33.36,-21.21 -105.83,-35.28z"/>
   </g>
   <g>
    <path class="fil0" d="M9501.28 14645.31c46.62,61.29 60.94,56.7 35.27,105.83 -107.56,-6.11 -83.58,-5.27 -35.27,-105.83z"/>
   </g>
   <g>
    <path class="fil0" d="M9219.05 14786.42c114.48,29.21 53.91,-17.29 105.84,70.56 -35.28,11.76 -70.56,23.52 -105.84,35.28 0,-35.28 0,-70.56 0,-105.84z"/>
   </g>
   <g>
    <path class="fil0" d="M9818.78 14821.7c17.31,26.8 123.19,62.39 35.27,105.83 -67.77,33.49 -58.56,-78.06 -35.27,-105.83z"/>
   </g>
   <g>
    <path class="fil0" d="M9642.39 14856.98c57.28,47.62 39.56,22.57 70.55,105.83 -11.75,0 -23.52,0 -35.27,0 -36.03,28.37 -9.67,12.52 -70.56,35.28 0,-23.52 0,-47.04 0,-70.56 28.37,-36.02 12.52,-9.66 35.28,-70.55z"/>
   </g>
   <g>
    <path class="fil0" d="M8901.55 14998.09c0,47.03 0,94.08 0,141.11 -152.99,26.28 -158.59,78.49 -317.5,105.83 2.79,152.96 35.94,264.73 105.84,352.78 37.85,26.52 33.36,21.21 105.83,35.28 97.46,-82.73 352.2,-227.22 458.61,-176.39 11.76,0 23.52,0 35.28,0 -22.25,61.88 -6.8,34.27 -35.28,70.56 -45.67,87.04 15.14,24.02 -70.55,70.55 -45.15,35.47 -357.32,185.54 -493.89,211.67 -81.44,-125.28 -215.67,-247.16 -352.78,-317.5 -15.38,-141.06 -21.79,-154.39 0,-282.22 195.84,-102.33 247.44,-207.53 564.44,-211.67z"/>
   </g>
   <g>
    <path class="fil0" d="M9466 14998.09c39.43,69.94 21.03,63.79 0,141.11 -30.76,-26.12 -39.8,-44.43 -70.56,-70.56 0,-11.75 0,-23.51 0,-35.27 61.88,-22.25 34.27,-6.81 70.56,-35.28z"/>
   </g>
   <g>
    <path class="fil0" d="M9889.33 15033.37c114.48,29.21 53.9,-17.29 105.84,70.55 -84.28,-29.7 -58.03,-14.16 -105.84,-70.55z"/>
   </g>
   <g>
    <path class="fil0" d="M9712.94 15068.64c35.28,11.76 70.56,23.52 105.84,35.28 -32.06,38.23 2.75,2.99 -35.28,35.28 -36.02,28.37 -9.67,12.52 -70.56,35.28 0,-35.28 0,-70.56 0,-105.84z"/>
   </g>
   <g>
    <path class="fil0" d="M9536.55 15174.48c73.23,13.12 67.9,8.54 105.84,35.28 -23.52,0 -47.04,0 -70.56,0 -24.38,4.65 -68.59,1.86 -35.28,-35.28z"/>
   </g>
   <g>
    <path class="fil0" d="M5761.83 16585.59c-29.32,-200.69 -78.03,-348.04 -35.27,-564.45 224.47,-41.86 245.92,-178.87 388.05,-282.22 55.69,-40.49 648.63,-137.11 740.83,-141.11 108.34,177.65 135.12,123.86 141.11,352.78 26.29,42.89 4.82,34.99 0,141.11 -346.94,221.83 -679.33,488.48 -1234.72,493.89z"/>
   </g>
   <g>
    <path class="fil0" d="M15533.77 15809.48c293.84,-3.31 387.98,74.89 599.72,105.83 33.92,-62.3 44.35,-59.28 70.56,-141.11 28.31,-41.61 27.27,-59.31 35.27,-141.11 -247.14,-32.81 -490.05,-13.1 -705.55,70.55 0,35.28 0,70.56 0,105.84z"/>
   </g>
   <g>
    <path class="fil0" d="M5867.67 16444.48c35.27,0 70.56,0 105.83,0 0,-35.28 0,-70.56 0,-105.84 153.11,-70.44 867.82,-292.44 881.94,-317.5 0,-70.54 0,-141.11 0,-211.66 -28.37,-36.02 -12.52,-9.67 -35.27,-70.56 -47.04,0 -94.08,0 -141.11,0 -125.06,248.52 -270.32,9.83 -493.89,141.11 -73.98,43.44 -108.79,166.81 -176.39,211.67 -121.89,80.86 -119.19,-43.17 -176.39,70.56 -48.52,94.7 16.05,134.36 35.28,282.22z"/>
   </g>
   <g>
    <path class="fil0" d="M16380.43 15880.03c-93.04,144.04 -180.12,275.08 -211.66,493.89 11.76,0 23.52,0 35.28,0 154.35,-136.82 353.82,-65.84 458.61,-282.22 -95.26,-29.7 14.93,-21.76 -70.56,-70.56 -56.97,-13.77 -72.61,-109.08 -211.67,-141.11z"/>
   </g>
   <g>
    <path class="fil0" d="M11653.21 17608.64c35.28,0 70.56,0 105.84,0 96.84,144.75 279.29,262.85 352.77,423.34 23.52,141.1 47.04,282.23 70.56,423.33 63.78,131.4 171.37,160.65 141.11,317.5 167.72,10.93 279.05,291.93 493.89,352.78 221.49,62.73 656.56,-119.47 811.39,-176.39 555.12,-204.07 1241.47,-183.94 1763.89,-423.33 0,-35.28 0,-70.56 0,-105.84 -129.34,11.76 -258.72,23.52 -388.06,35.28 -67.41,-120.87 -85.21,-144.89 -70.55,-282.22 132.15,-88.63 143.41,-140.22 388.05,-141.11 242.13,-154.71 875.93,-74.91 1234.72,-70.56 45.26,-73.09 73.29,-81.22 105.84,-176.39 -119.5,-63.66 -211.89,-173.16 -352.78,-211.66 -613.26,-167.57 -1197.95,285.13 -1799.17,141.11 -55.26,-155.23 -126.25,-134.01 -141.11,-352.78 563.53,-140.61 1060.78,-244.3 1905,-246.94 21.14,-60.84 31.41,-111.2 35.28,-211.67 -28.37,-36.02 -12.52,-9.67 -35.28,-70.56 -23.52,0 -47.04,0 -70.55,0 -87.99,-56.36 -487.18,-75.83 -635,-35.27 -342.7,94.01 -763.98,132.99 -1234.73,141.11 -11.76,-35.28 -23.52,-70.56 -35.27,-105.84 -26.52,-37.85 -21.22,-33.35 -35.28,-105.83 62.56,-47.32 100.6,-108.32 141.11,-176.39 163.33,3.88 1273.91,-88.48 1446.39,-211.67 37.01,-54.65 36.35,-144.12 35.28,-246.94 -362.62,-237.56 -485.75,-141.6 -917.23,-35.28 -352.06,86.75 -603.14,-76.89 -917.22,0 -404.46,99.02 -1120.43,269.93 -1411.11,493.89 -156.09,120.27 -319.45,395.11 -458.61,529.17 -198.28,191 -469.02,189.71 -529.17,529.16z"/>
   </g>
   <g>
    <path class="fil0" d="M16098.21 16691.42c117.58,23.52 235.2,47.04 352.78,70.56 19.11,157.89 34.05,208.71 70.56,317.5 35.27,-11.76 70.55,-23.52 105.83,-35.28 90.43,-260.56 276.27,-272.14 282.22,-635 -35.27,-11.76 -70.56,-23.52 -105.83,-35.28 -172.78,-118.74 -672.56,153.57 -705.56,317.5z"/>
   </g>
   <g>
    <path class="fil0" d="M7137.67 16373.92c368.86,-5.95 747.41,195.89 776.11,529.17 51.06,68.89 60.27,200.79 35.27,246.94 0,11.76 0,23.52 0,35.28 -61.88,-22.25 -34.26,-6.8 -70.55,-35.28 -223.35,-321.12 -244.99,-573.17 -811.39,-564.44 -144.89,165.71 -555.3,242.74 -705.55,423.33 -96.96,116.54 -44.53,304.56 -176.39,388.06 -36.03,28.37 -9.67,12.52 -70.56,35.28 0,-35.28 0,-70.56 0,-105.84 213.31,-290.58 129.7,-531.09 458.61,-670.28 32.06,38.23 -2.75,2.99 35.28,35.28 0,-11.76 0,-23.52 0,-35.28 -16.26,-39.04 -15.68,-152.04 0,-211.66 112.97,65.41 439.8,80.74 529.17,-70.56z"/>
   </g>
   <g>
    <path class="fil0" d="M15745.43 16515.03c-220.36,135.87 -900.61,119.19 -1199.44,176.39 0,23.52 0,47.04 0,70.56 141.1,0 282.24,0 423.33,0 211.9,-130.77 767.26,18.72 917.23,-70.56 19.42,-26.54 43.91,-96.94 70.55,-176.39 -70.55,0 -141.12,0 -211.67,0z"/>
   </g>
   <g>
    <path class="fil0" d="M16944.88 16903.09c-35.28,0 -70.56,0 -105.83,0 -58.63,156.71 -163.64,225.72 -211.67,423.33 11.76,0 23.52,0 35.28,0 86.6,-108.47 182.94,-175.8 317.5,-141.11 0,-11.76 0,-23.52 0,-35.28 0,0 -2.76,-6.14 70.55,-35.27 85.92,-60.68 265.35,-32.79 352.78,0 0,-58.79 0,-117.6 0,-176.39 -124.74,-86.47 -143.35,-207.95 -317.5,-246.95 -49.27,70.76 -47.49,72.88 -141.11,105.84 0,35.27 0,70.56 0,105.83z"/>
   </g>
   <g>
    <path class="fil0" d="M12005.99 16726.7c-90.45,66.87 -226.71,72.22 -388.06,70.56 -52.19,90.17 -84.59,111 -105.83,246.94 43.43,47.32 64.38,126.39 105.83,176.39 59.3,-47.42 110.9,-57.76 211.67,-70.56 7.32,-191.09 249.33,-214.16 317.5,-423.33 -47.03,0 -94.08,0 -141.11,0z"/>
   </g>
   <g>
    <path class="fil0" d="M6502.67 16797.26c-11.76,23.51 -23.52,47.04 -35.28,70.55 61.52,-49.37 35.28,-70.55 35.28,-70.55z"/>
   </g>
   <g>
    <path class="fil0" d="M7349.33 16867.81c142.47,33.27 184.85,56.59 211.67,211.67 -23.52,0 -47.04,0 -70.56,0 -53.31,-93.64 -146.23,-96.14 -211.66,-176.39 61.88,-22.25 34.27,-6.81 70.55,-35.28z"/>
   </g>
   <g>
    <path class="fil0" d="M7137.67 16903.09c0,35.27 0,70.56 0,105.83 -428.95,11.37 -407.77,311.72 -705.56,388.06 -11.76,-35.28 -23.52,-70.56 -35.28,-105.84 96.12,-112.41 168.73,-259.43 317.5,-317.5 94.09,-75.26 245.34,-74.79 423.34,-70.55z"/>
   </g>
   <g>
    <path class="fil0" d="M11300.43 16973.64c-22.25,61.89 -6.8,34.27 -35.27,70.56 43.94,141.24 176.08,304.87 317.5,352.78 0,-47.03 0,-94.08 0,-141.11 -108.86,-89.09 -94.92,-211.77 -176.39,-246.95 -37.85,-26.52 -33.36,-21.21 -105.84,-35.28z"/>
   </g>
   <g>
    <path class="fil0" d="M7314.05 17114.76c58.8,0 117.6,0 176.39,0 27.8,60.86 92.67,64.92 35.28,105.83 0,11.76 0,23.52 0,35.28 -176.61,-59.45 -147.29,-37.26 -211.67,-141.11z"/>
   </g>
   <g>
    <path class="fil0" d="M7208.22 17150.03c0,47.04 0,94.08 0,141.11 -304.99,20.88 -338.99,181.9 -529.16,282.23 -33.92,-62.31 -44.36,-59.28 -70.56,-141.11 225.39,-147.41 226.36,-281.91 599.72,-282.23z"/>
   </g>
   <g>
    <path class="fil0" d="M17085.99 17185.31c-81.29,59.9 -543.03,249.25 -564.44,282.22 11.75,0 23.51,0 35.27,0 66.68,78.28 294.09,210.87 388.06,246.95 111.25,-209.15 402.11,-175.62 493.89,-423.34 -11.76,0 -23.52,0 -35.28,0 -51.59,-88.93 -44.28,-64.48 -176.39,-70.55 -41.61,-28.32 -59.31,-27.27 -141.11,-35.28z"/>
   </g>
   <g>
    <path class="fil0" d="M14581.27 17573.37c634.18,5.27 1233.55,-104.21 1728.61,-105.84 15.95,-115.17 62.48,-166.32 35.28,-211.66 -37.85,-26.52 -33.36,-21.22 -105.84,-35.28 -90.42,138.56 -1286.18,134.26 -1552.22,141.11 -63.71,90.64 -85.54,57.82 -105.83,211.67z"/>
   </g>
   <g>
    <path class="fil0" d="M17509.32 18208.37c258.68,-23.52 517.44,-47.04 776.11,-70.56 0,-35.27 0,-70.56 0,-105.83 -281.09,-187.25 -412.57,-528.78 -670.27,-740.84 0,11.76 0,23.52 0,35.28 -52.84,68.65 -96.39,165.17 -70.56,211.67 -110.57,132.3 -321.7,177.23 -388.05,352.78 216.96,31.94 353.58,47.95 352.77,317.5z"/>
   </g>
   <g>
    <path class="fil0" d="M7278.78 17538.09c-221.2,9.67 -224.33,81.14 -423.34,105.83 -11.75,-23.51 -23.52,-47.04 -35.27,-70.55 152.93,-93.92 233.59,-165.47 458.61,-211.67 0,58.79 0,117.6 0,176.39z"/>
   </g>
   <g>
    <path class="fil0" d="M7419.89 17361.7c82.8,24.99 78.81,36.15 141.11,70.56 -11.76,35.27 -23.52,70.56 -35.28,105.83 -11.76,0 -23.52,0 -35.28,0 0,-11.76 0,-23.52 0,-35.28 -44.5,-47.93 -48.16,-62.38 -70.55,-141.11z"/>
   </g>
   <g>
    <path class="fil0" d="M7455.17 18878.64c543.43,-23.66 1299.75,-362.39 1728.61,-564.44 250.13,-117.84 589.08,-70.08 705.55,-317.5 -70.55,0 -141.12,0 -211.66,0 -159.28,106.08 -1338.29,355.1 -1481.67,317.5 -13.66,89.24 20.49,55.67 -105.83,70.56 -129.67,103.93 -787.69,270.18 -811.39,246.94 -35.28,-11.76 -70.56,-23.52 -105.84,-35.28 -11.75,-70.55 -23.52,-141.12 -35.27,-211.66 23.51,0 47.04,0 70.55,0 32.06,38.22 -2.75,2.98 35.28,35.27 0,-11.75 0,-23.52 0,-35.27l-35.28 -35.28c23.52,0 47.04,0 70.56,0 214.8,-161.31 573.84,-82.11 811.39,-211.67 342.86,-187 803.55,-258.27 1199.44,-388.05 94.07,-11.76 188.16,-23.52 282.22,-35.28 304.21,-161.59 574,-326.44 987.78,-282.22 68.34,152.48 136.93,137.95 141.11,388.05 -414.38,309.21 -927.19,603.85 -1446.39,811.39 -276,110.33 -554.43,246.03 -846.66,282.22 0,-11.76 0,-23.52 0,-35.28 -11.76,0 -23.52,0 -35.28,0 -177.47,135.23 -457.86,334.77 -811.39,352.78 -36.32,-98.8 -53.54,-74.01 -70.56,-211.66 -28.31,-41.61 -27.27,-59.32 -35.27,-141.12z"/>
   </g>
   <g>
    <path class="fil0" d="M10171.55 17538.09c-169.18,162.47 -1266.81,554.22 -1587.5,458.61 -9.82,91.3 16.46,62.61 -141.11,70.56 -74.81,112.26 -913.27,285.4 -1093.61,352.77 0,23.52 0,47.04 0,70.56 58.79,0 117.6,0 176.39,0 483.15,-328.97 1818.73,-400.7 2398.89,-635 128.15,-51.75 369.05,-44.5 493.89,0 50.64,-114.67 85.95,-79.47 105.83,-246.95 -98.97,-53.37 -175.11,-72.09 -352.78,-70.55z"/>
   </g>
   <g>
    <path class="fil0" d="M11723.77 17749.76c-47.04,0 -94.08,0 -141.11,0 -45.95,85.29 -63.55,99.95 -70.56,246.94 172.71,44.94 158.39,122.83 211.67,176.39 0,-11.76 0,-23.52 0,-35.28 11.76,0 23.52,0 35.28,0 0,11.76 0,23.52 0,35.28 214.48,242.98 11.55,675.35 176.38,740.83 103.35,68.45 303.43,112.68 423.34,141.11 0,-47.03 0,-94.07 0,-141.11 -171.04,-152.7 -593.72,-901.81 -635,-1164.16z"/>
   </g>
   <g>
    <path class="fil0" d="M15216.27 18208.37c0,35.27 0,70.56 0,105.83 70.55,-11.76 141.12,-23.52 211.66,-35.28 47.04,82.31 94.08,164.64 141.12,246.95 185.72,-116.2 1434.52,-279.91 1763.88,-282.23 0,-23.51 0,-47.03 0,-70.55 28.32,-41.61 27.28,-59.31 35.28,-141.11 -152.85,11.76 -305.75,23.52 -458.61,35.28 -55.7,-18.99 -31.92,-118.94 -141.11,-105.84 -70.1,8.41 -195.1,149.07 -246.94,176.39 -435.05,23.52 -870.23,47.04 -1305.28,70.56z"/>
   </g>
   <g>
    <path class="fil0" d="M11512.1 18208.37c27.86,193.53 113.34,231.56 141.11,423.33 35.28,0 70.56,0 105.84,0 -3.84,-168.08 -39.72,-253.58 -70.56,-388.06 -23.52,0 -47.04,0 -70.56,0 -37.85,-26.51 -33.35,-21.21 -105.83,-35.27z"/>
   </g>
   <g>
    <path class="fil0" d="M7631.55 19125.59c413.67,-43.13 810.49,-323.55 1164.17,-458.61 214.56,-81.93 433.64,-51.86 529.17,-246.95 -47.03,0 -94.08,0 -141.11,0 -305.82,200.13 -1502.47,357.07 -1552.23,705.56z"/>
   </g>
   <g>
    <path class="fil0" d="M18567.66 18596.42c73.22,13.13 67.89,8.54 105.83,35.28 171.13,228.28 95.52,744.7 105.83,1128.89 20.41,760.64 -94.99,1650.87 -246.94,2328.33 -1678.6,620.73 -3600.25,967.71 -5432.78,1481.67 -176.37,11.76 -352.79,23.52 -529.17,35.28 -632.86,169.31 -1472.83,297.41 -2081.38,529.16 -281.16,107.08 -549.79,31.76 -846.66,105.84 -471.37,117.62 -1542.83,408.88 -1869.72,211.66 11.75,0 23.52,0 35.27,0 61,-47.54 1064.56,-229.89 1270,-282.22 188.13,-11.76 376.32,-23.52 564.45,-35.28 565.18,-259.01 1315.51,-212.77 1940.27,-423.33 274.88,-92.64 711.25,-195.5 987.77,-282.22 292.4,-91.7 702.53,-11.34 952.5,-141.11 496.35,-257.69 1379.78,-365.45 1940.28,-529.17 627.04,-183.16 1258.75,-281.4 1834.45,-458.61 258.59,-79.6 720.8,-112.73 846.66,-317.5 492.62,-624.34 310.45,-2409.35 282.23,-3280.83 11.75,0 23.51,0 35.27,0 0,-11.76 0,-23.52 0,-35.28 127.19,1.15 34.29,34.61 105.84,-70.56z"/>
   </g>
   <g>
    <path class="fil0" d="M7949.05 19866.42c-13.12,-73.22 -8.53,-67.89 -35.27,-105.83 -32.88,32.21 -61.91,46.94 -105.84,70.55 0,-35.27 0,-70.55 0,-105.83 28.37,-36.02 12.52,-9.66 35.28,-70.55 294.83,-64.32 630.76,-265.74 917.22,-352.78 484.01,-147.06 953.56,-95.51 1411.11,-282.22 269.56,-110 531.89,-332.05 846.66,-282.23 82.26,281.35 142.75,542.83 -282.21,529.17 -150.62,-71.52 -619.1,112.04 -776.11,176.39 -329.23,47.03 -658.55,94.08 -987.78,141.11 -281.65,106.29 -701.35,241.86 -1023.06,282.22z"/>
   </g>
   <g>
    <path class="fil0" d="M10947.66 19125.59c-4.84,-119.3 -17.44,-181.91 -70.56,-246.95 -37.85,-26.51 -33.36,-21.21 -105.82,-35.27 -193.46,295.98 -547.85,188.48 -917.23,317.5 -487.66,170.33 -1155.24,280.16 -1622.77,493.89 -103.16,47.15 -128,-31.58 -176.39,0 28.37,36.02 12.52,9.66 35.28,70.55 70.54,0 141.11,0 211.66,0 297.88,-195.53 693.54,-139.81 1093.61,-246.94 478.92,-128.25 992.05,-340.66 1552.22,-352.78z"/>
   </g>
   <g>
    <path class="fil0" d="M11935.43 19125.59c6.78,132.71 32.35,190.5 70.56,282.22 91.49,-65.57 157.1,-96.08 317.5,-105.83 -13.12,-73.23 -8.54,-67.89 -35.28,-105.84 -84.23,-62.33 -203.8,-70.33 -352.78,-70.55z"/>
   </g>
   <g>
    <path class="fil0" d="M12429.32 19125.59c10.37,82.16 15.93,87.38 35.28,141.11 11.76,0 23.52,0 35.28,0 0,-11.76 0,-23.52 0,-35.28 26.52,-37.85 21.21,-33.36 35.28,-105.83 -35.28,0 -70.56,0 -105.84,0z"/>
   </g>
   <g>
    <path class="fil0" d="M13593.49 19513.64c-209.38,209.02 -504.4,141.69 -776.11,211.67 67.54,225.83 112.99,585.29 317.5,670.28 75.85,50.74 257.79,39.27 388.05,35.28 -0.24,-92.29 -45.72,-31.14 35.28,-105.84 0,-11.75 0,-23.52 0,-35.27 23.52,11.75 47.04,23.52 70.56,35.27 0,-11.75 0,-23.52 0,-35.27 -50.67,-106.17 30.77,-531.28 35.28,-776.12 -23.52,0 -47.04,0 -70.56,0z"/>
   </g>
   <g>
    <path class="fil0" d="M15498.49 20325.03c176.99,-3.22 243.12,11.25 317.5,105.84 84.85,99.4 91.13,283.21 -35.28,352.78 -37.85,26.51 -33.36,21.21 -105.83,35.27 -11.76,-35.27 -23.52,-70.56 -35.28,-105.83 55.65,-53.79 78.12,-89.72 105.83,-176.39 -84.27,-29.7 -58.02,-14.16 -105.83,-70.55 -264.47,53 -648.14,130.48 -881.94,105.83 0,-23.52 0,-47.04 0,-70.56 72.51,-50.83 45.9,-54.8 176.39,-70.55 127.71,-95.12 517.03,-27.91 564.44,-105.84z"/>
   </g>
   <g>
    <path class="fil0" d="M13064.32 20783.65c185.41,-0.81 279.84,-37.63 423.34,-70.56 0,-35.27 0,-70.56 0,-105.83 -185.41,0.8 -279.84,37.62 -423.34,70.55 0,35.28 0,70.56 0,105.84z"/>
   </g>
   <g>
    <path class="fil0" d="M11265.16 21559.76c116.11,-7.35 336.21,-45.24 423.33,-105.84 30.95,-45.67 31.55,-87.02 35.28,-176.39 -23.52,0 -47.04,0 -70.56,0 -143.73,-86.44 -549.5,39.37 -705.55,70.56 -31.95,-85.5 -37.72,-56.09 -70.56,-141.11 314.57,-59.46 523.65,-163.68 881.95,-176.39 80.96,122.82 149.8,159.35 176.38,352.78 -95.78,85.52 -159.7,145.92 -176.38,317.5 97.88,121.22 117.95,257.97 282.22,317.5 464.46,341.07 1921.8,-27.91 2398.89,-176.39 130.23,-40.54 291.41,-166.75 388.05,-141.11 103.25,27.38 289.17,-196.21 317.5,-282.22 92.22,-153.91 -4.04,-496.78 70.56,-670.28 105.82,-11.76 211.67,-23.52 317.5,-35.28 33.9,51.44 126.06,76.93 70.55,105.83 300.65,853.88 -293.95,1027.99 -881.94,1234.73 -621.63,218.56 -1614.47,614.16 -2469.45,423.33 -164.61,-11.76 -329.27,-23.52 -493.88,-35.28 -202.94,-104.78 -307.79,-301.25 -458.62,-458.61 -11.75,-141.1 -23.52,-282.24 -35.27,-423.33z"/>
   </g>
   <g>
    <path class="fil0" d="M6784.89 23076.7c-11.59,48.84 50.06,51.19 70.55,70.56 24.66,-37.5 -60.83,-59.96 -70.55,-70.56z"/>
   </g>
   <g>
    <path class="fil0" d="M7772.67 24170.31c-11.76,23.52 -23.52,47.04 -35.28,70.56 61.52,-49.38 35.28,-70.56 35.28,-70.56z"/>
   </g>
  </g>
 </g>
</svg>
