<?xml version="1.0" encoding="UTF-8"?>
<!DOCTYPE svg PUBLIC "-//W3C//DTD SVG 1.1//EN" "http://www.w3.org/Graphics/SVG/1.1/DTD/svg11.dtd">
<!-- Creator: CorelDRAW 2020 (64-Bit) -->
<svg xmlns="http://www.w3.org/2000/svg" xml:space="preserve" width="210mm" height="297mm" version="1.1" style="shape-rendering:geometricPrecision; text-rendering:geometricPrecision; image-rendering:optimizeQuality; fill-rule:evenodd; clip-rule:evenodd"
viewBox="0 0 21000 29700"
 xmlns:xlink="http://www.w3.org/1999/xlink"
 xmlns:xodm="http://www.corel.com/coreldraw/odm/2003">
 <defs>
  <style type="text/css">
   <![CDATA[
    .fil0 {fill:black}
   ]]>
  </style>
 </defs>
 <g id="Слой_x0020_1">
  <metadata id="CorelCorpID_0Corel-Layer"/>
  <g id="fitness.ai">
   <g>
    <path class="fil0" d="M16358.57 10937.27c16.29,-380.35 126.07,-689.59 197.56,-987.78 23.96,-99.95 -19.46,-223.11 -28.23,-282.22 9.41,-188.13 18.82,-376.32 28.23,-564.45 -36.73,-153.39 -105,-330.75 -141.11,-508 -69.89,-31.42 -91.24,-47.64 -197.56,-56.44 -19.57,121.68 -33.69,212.36 -141.11,254 -173.7,137.61 -574.87,20.39 -790.22,0 -193.63,-283.45 -401.3,-267.04 -395.11,-790.22 124.16,-199.45 69.52,-452.31 310.44,-536.23 211.28,-157.92 1392.77,34.35 1552.22,141.11 310.62,207.99 293.01,649.55 451.56,1016 328.79,759.96 837.86,1340.43 1044.22,2257.78 51.47,228.82 -84.08,419.6 -84.67,592.67 -0.5,149.49 162.41,229.86 112.89,423.33 -98.93,386.58 -546.23,563.27 -874.89,733.78 -873.41,453.12 -1894.15,731.89 -3217.33,733.77 -47.19,413.2 -462.33,1018.02 -733.78,1213.55 -83.09,59.86 -255.13,86.29 -310.44,169.34 -87.63,131.57 -83.71,275.6 -169.34,395.11 -96.18,134.25 -270.79,233.78 -338.66,395.11 -156.79,372.69 -132.78,850.09 -282.22,1213.56 -91.26,221.93 -294.64,408.67 -338.67,649.11 136.19,178.21 50.54,400.59 112.89,677.33 61.42,272.63 101.77,584.75 197.55,818.44 -1354.53,0 -2709.45,0 -4063.99,0 -28.81,-22.69 -7.73,-10.01 -56.44,-28.22 0,-37.63 0,-75.26 0,-112.89 192.81,-281 70.42,-744.64 169.33,-1128.89 28.35,-110.12 91.92,-181.58 112.89,-310.44 -330.39,-263.56 -441.8,-891.57 -564.44,-1354.67 -45.36,-171.27 -11.21,-337.66 -84.67,-479.78 -91.9,-177.78 -314.14,-311.06 -423.33,-479.77 -64.17,-99.15 -46.81,-243.48 -141.11,-310.45 -196.83,-139.76 -394.91,-205.49 -536.23,-395.11 -199.25,-267.36 -332.15,-585.57 -479.77,-903.11 -1392.87,19.56 -2381.87,-270.18 -3217.34,-790.21 -231.54,-144.13 -704.33,-321.99 -762,-620.89 -95.28,-145.91 46.03,-359.86 28.23,-479.78 -193.5,-1303.47 549.9,-1945.75 931.33,-2822.22 158.25,-363.65 169.65,-866.06 479.78,-1072.45 273.06,-181.71 1127.72,-204.62 1580.44,-197.55 160.31,254.07 305.68,477.68 310.44,903.11 -364.88,389.54 -577.1,660.79 -1270,479.78 -45.01,-113.77 -56.04,-225.08 -197.55,-254 -31.97,43.63 -30.61,23.78 -56.45,84.66 -53.87,75.69 -198.15,567.29 -169.33,705.56 13.78,66.13 51.3,228.53 28.22,338.67 -12.42,59.32 -59.8,236.21 -28.22,338.66 87.3,283.22 193.25,498.44 197.56,931.34 385.03,-4.32 449.03,-232.42 762,-310.45 379.92,-94.72 647.57,162.53 874.89,225.78 143.48,39.92 622.37,-216.16 762,-254 624.56,-169.24 1077.9,273.12 1467.55,366.89 136.22,32.78 201.43,-62.69 282.22,-84.67 117.37,-31.92 229.29,24.37 282.23,0 37.88,-13.21 551.36,-419.11 564.44,-451.55 41.4,-67.97 5.27,-179.85 28.22,-282.23 81.07,-361.59 10.46,-775.37 -141.11,-1072.44 -56.7,-111.14 -186.77,-196.8 -225.78,-338.67 -76.46,-278.14 62.88,-632.17 112.89,-846.66 226.35,-970.84 334.85,-1440.5 1580.44,-1298.23 294.09,33.6 569.32,86.3 762,225.78 372.12,269.41 288.33,864.63 423.33,1382.89 33.11,127.09 149.49,361.41 84.67,564.45 -43.43,136.02 -188.98,226.47 -254,338.66 -39.99,68.99 -177.79,498.82 -197.56,564.45 -4.8,15.92 47.04,802.33 56.45,818.44 94.06,37.63 188.15,75.26 282.22,112.89 229.17,143.09 204.09,280.48 620.89,282.22 230.84,178.62 497.62,-53.98 705.55,-141.11 256.18,-107.34 553.95,-146.21 903.11,-141.11 288.61,4.21 688.28,313.99 903.12,254 229.76,-64.16 534.94,-317.38 903.11,-225.78 308.94,76.87 308.04,309.63 705.55,310.45z"/>
   </g>
  </g>
 </g>
</svg>
