<?xml version="1.0" encoding="UTF-8"?>
<!DOCTYPE svg PUBLIC "-//W3C//DTD SVG 1.1//EN" "http://www.w3.org/Graphics/SVG/1.1/DTD/svg11.dtd">
<!-- Creator: CorelDRAW 2020 (64-Bit) -->
<svg xmlns="http://www.w3.org/2000/svg" xml:space="preserve" width="210mm" height="297mm" version="1.1" style="shape-rendering:geometricPrecision; text-rendering:geometricPrecision; image-rendering:optimizeQuality; fill-rule:evenodd; clip-rule:evenodd"
viewBox="0 0 21000 29700"
 xmlns:xlink="http://www.w3.org/1999/xlink"
 xmlns:xodm="http://www.corel.com/coreldraw/odm/2003">
 <defs>
  <style type="text/css">
   <![CDATA[
    .fil0 {fill:black}
   ]]>
  </style>
 </defs>
 <g id="Слой_x0020_1">
  <metadata id="CorelCorpID_0Corel-Layer"/>
  <g id="helmet.ai">
   <g>
    <path class="fil0" d="M9206 4890c3032,-17 4658,1971 5468,4198 217,597 178,1213 353,1870 168,631 406,1287 564,1870 -12,0 -24,0 -35,0 -351,-449 -2011,-568 -2822,-388 -763,169 -1581,140 -2364,318 -361,82 -975,207 -1446,106 -582,-125 -1240,-156 -1799,-282 -212,-12 -423,-24 -635,-35 -1195,-264 -2523,-231 -3387,282 0,-24 0,-47 0,-71 395,-445 455,-1719 635,-2434 244,-972 461,-1884 917,-2646 646,-1078 1707,-2044 2963,-2505 361,-132 758,-162 1129,-247 155,-36 351,32 459,-35z"/>
   </g>
   <g>
    <path class="fil0" d="M4725 12545c1006,13 2000,150 2858,353 472,111 954,78 1411,176 537,116 1448,-79 1870,-176 1142,-265 2328,-317 3598,-318 0,12 0,24 0,35 -12,0 -24,0 -35,0 -320,480 -1481,403 -2152,564 -843,203 -1740,264 -2646,459 -393,84 -930,-34 -1235,-106 -752,-177 -1478,-222 -2187,-388 -689,-162 -1641,-53 -1976,-564 151,5 402,26 494,-35z"/>
   </g>
   <g>
    <path class="fil0" d="M4090 12757c106,100 209,262 353,318 87,33 202,-35 247,35 12,247 24,494 35,741 111,476 231,966 459,1341 105,172 229,365 353,529 129,172 375,277 459,494 -291,202 -414,656 -741,811 0,-12 0,-24 0,-35 -161,-58 -222,-158 -318,-282 -841,-1095 -846,-2133 -847,-3951z"/>
   </g>
   <g>
    <path class="fil0" d="M14568 12757c89,137 84,852 71,1094 -50,925 -184,1879 -564,2505 -74,122 -577,727 -670,635 -185,-121 -630,-631 -706,-847 633,-388 1023,-1276 1235,-2081 34,-127 40,-904 71,-953 54,-85 443,-26 564,-353z"/>
   </g>
  </g>
 </g>
</svg>
