<?xml version="1.0" encoding="UTF-8"?>
<!DOCTYPE svg PUBLIC "-//W3C//DTD SVG 1.1//EN" "http://www.w3.org/Graphics/SVG/1.1/DTD/svg11.dtd">
<!-- Creator: CorelDRAW 2020 (64-Bit) -->
<svg xmlns="http://www.w3.org/2000/svg" xml:space="preserve" width="141.111mm" height="265.289mm" version="1.1" style="shape-rendering:geometricPrecision; text-rendering:geometricPrecision; image-rendering:optimizeQuality; fill-rule:evenodd; clip-rule:evenodd"
viewBox="0 0 14111.1 26528.88"
 xmlns:xlink="http://www.w3.org/1999/xlink"
 xmlns:xodm="http://www.corel.com/coreldraw/odm/2003">
 <defs>
  <style type="text/css">
   <![CDATA[
    .fil0 {fill:none}
    .fil1 {fill:black}
   ]]>
  </style>
 </defs>
 <g id="Слой_x0020_1">
  <metadata id="CorelCorpID_0Corel-Layer"/>
  <g id="_1984724417024">
   <path class="fil0" d="M5750.28 17850.55c-114.48,29.21 -53.9,-17.29 -105.84,70.55 6.59,7.85 -52.82,902.86 -176.39,1164.17 -35.27,23.51 -70.55,47.04 -105.83,70.55 -102.35,232.21 -1.59,443.59 -70.55,705.56 -16.73,63.55 -151.16,393.18 -141.12,423.33 35.28,11.76 70.56,23.52 105.84,35.28l105.83 705.56c-36.32,257.52 -317.7,398.58 -388.05,599.72 -28.07,80.24 34.03,94.99 35.27,141.11 4.39,162.61 -199.64,869 -246.94,1058.33 -90.4,361.86 280.82,834.38 70.55,1164.17 -95.82,258.73 -301.12,147.57 -458.61,246.94 -68.43,43.18 -50.27,158.21 -105.83,211.67 -243.86,234.62 -1054.7,478.73 -1516.94,388.06 -11.76,-35.28 -23.52,-70.56 -35.28,-105.84 -65.46,-92.13 -24.36,-277.79 35.28,-352.78 90.95,-291.74 437.49,-415.28 599.72,-635 11.76,-58.79 23.52,-117.59 35.28,-176.38 124.81,-276.76 334.35,-610.73 423.33,-917.23 39.74,-136.9 61.94,-798.1 0,-917.22 -92.65,-178.18 -364.58,-643.28 -246.95,-987.78 33.64,-98.5 175.98,-212.27 211.67,-317.5 11.76,-364.5 23.52,-729.11 35.28,-1093.61 72.03,-307.25 155.89,-705.74 105.83,-952.5 -69.22,-341.25 172.9,-615.19 105.84,-846.66 -21.98,-75.86 -149.49,-167.21 -176.39,-246.95 0,-235.16 0,-470.39 0,-705.55 -70.05,-317.18 -10.33,-714.11 -70.56,-987.78 -71.17,-323.4 -112.22,-679.26 -35.28,-1023.06 195.65,-102.15 291.51,-136.43 282.23,-458.61 80.6,-130.5 3.92,-493.58 35.27,-670.28 -53.46,-18.89 -59.74,-23.81 -141.11,-35.27 -43.12,217.68 -101.65,681.59 -352.78,705.55 -72.17,-114.34 -105.39,-142.22 -105.83,-352.78 100.22,-146.19 297.85,-1173.53 317.5,-1411.1 -11.76,0 -23.52,0 -35.28,0 0,-11.76 0,-23.52 0,-35.28 -184.4,67.88 -440.85,154.78 -670.27,70.56 -94.28,-34.61 -155.06,-180.63 -317.5,-141.11 -166.01,40.39 -221.14,188.81 -458.62,211.67 -91.89,-149.18 -142.09,-365.33 -246.94,-529.17 -136.52,-213.33 -363.62,-343.34 -388.06,-670.28 28.38,-36.02 12.53,-9.66 35.28,-70.55 265.91,-116.93 493.05,-341.85 740.84,-458.62 176.37,-58.79 352.79,-117.59 529.16,-176.38 64.96,-48.31 58.8,-102.05 70.56,-211.67 -185.19,-126.74 -675.39,-655.33 -740.84,-881.95 -204.49,-708.13 376.98,-1322.51 635,-1728.61 136.46,-214.76 93.08,-503.22 211.67,-740.83 89.27,-178.84 286.25,-333.72 388.06,-493.89 150.01,-236.01 99.92,-649.98 317.5,-811.39 123.71,-91.78 349.94,-203.63 493.89,-246.94 105.82,-11.76 211.67,-23.52 317.5,-35.28 105.95,-61.38 163.66,-249.74 282.22,-317.5 129.34,-23.52 258.71,-47.04 388.05,-70.55 164.44,-91.73 327.04,-519.66 352.78,-740.84 -141.47,-110.34 -100.01,-272.18 -317.5,-317.5 -103.42,97.48 -276.85,68.87 -423.33,35.28 -334.31,-564.53 -48.33,-1071.11 141.11,-1587.5 11.76,-117.58 23.52,-235.2 35.28,-352.78 174.12,-481.14 908.6,-977.18 1693.33,-705.55 372.02,128.77 708.41,519.75 846.66,881.94 41.91,109.8 -29.47,556.62 70.55,670.28 32.88,32.21 61.91,46.94 105.84,70.55 -20.47,53.64 -38.99,35.99 -70.56,70.56 53.12,175.81 87.97,380.52 105.83,388.06 0,11.75 0,23.51 0,35.27 -35.27,11.76 -70.56,23.52 -105.83,35.28 6.4,208.52 -125.56,212.32 -211.67,423.33 -136.58,-5.18 -342.73,-18.93 -423.33,35.28 -77.29,66.36 -169.83,339.59 -141.1,388.06 11.76,23.51 23.52,47.04 35.28,70.55 78.6,-35.16 100.41,-53.84 211.65,-70.55 64.06,90.02 189.31,154.87 246.95,246.94 23.51,94.07 47.04,188.16 70.55,282.22 35.28,11.76 70.56,23.52 105.84,35.28 142.35,76.16 404.24,-22.16 599.72,70.56 126.93,60.2 142.43,242.11 246.94,317.5 184.16,132.83 510.52,166.17 635,352.77 23.52,105.83 47.04,211.68 70.56,317.5 64.91,144.84 178.73,258.61 246.94,458.62 38.33,112.37 -14.8,240.09 35.28,317.5 41.61,28.31 59.31,27.27 141.11,35.27 301.56,-267.14 1292.95,-396.56 1340.56,-846.66 -59.87,-127.54 65.03,-561.75 105.83,-740.84 53.47,-18.89 59.74,-23.81 141.11,-35.27 95.52,230.08 168.47,469.35 282.23,670.27 61.88,-22.25 34.26,-6.8 70.55,-35.27 660.41,-171.07 928.06,-954.29 1658.06,-987.78 0,11.76 0,23.52 0,35.28 11.75,0 23.52,0 35.27,0 18.14,134.33 49.37,148.47 70.56,282.22 -241.88,136.83 -496.06,393.93 -740.83,493.89 -105.83,0 -211.68,0 -317.5,0 -105.58,35.31 -457.2,239.69 -564.45,317.5 -114.69,83.21 -86.02,281.34 -176.39,388.05 -236.82,279.66 -717.13,505.39 -1058.33,670.28 -28.07,328.37 137.2,525.22 70.56,846.67 -204.55,64.46 -615.94,374.88 -635.01,635 46.42,66.64 154.46,266.34 176.39,317.5 15.14,35.3 -47.49,130.94 -35.27,176.39 35.92,133.64 205.1,144.84 246.94,317.5 -43.43,77.34 -25.8,131.2 0,211.66 -82.58,190.55 -300.42,863.59 -564.44,952.5 -115.43,72.83 -322.01,8.78 -423.34,35.28 11.76,35.27 23.52,70.56 35.28,105.83 70.55,11.76 141.12,23.52 211.67,35.28 273.65,616.43 297.6,1160.66 246.94,1869.72 -46.51,9.34 -881.94,246.95 -881.94,246.95 0,82.3 0,164.64 0,246.94 186.73,203.16 118.7,904.35 70.55,1164.16 162.64,61.59 333.78,211.36 352.78,423.33 195.79,308.95 -152,809.66 -70.55,1199.45 23.51,0 47.03,0 70.55,0 -30.77,136.86 -86,268.24 -35.28,458.61 28.74,107.86 -22.91,220.17 -35.27,388.05 -6.73,91.21 130.59,244.92 105.83,388.06 -10.55,60.97 -85.87,173.52 -105.83,211.67 1.9,35.86 73.09,74.09 35.27,141.11 -35.27,11.76 -70.56,23.52 -105.83,35.27 -27.54,57.04 -8.55,692.09 0,776.12 16.33,160.41 117.9,416.38 176.39,635 47.15,176.25 -55.74,288.44 -35.28,388.05 6.8,33.09 100.03,124.15 105.83,141.11 40.83,119.25 -82.82,371.16 -35.27,458.61 202.86,373.14 365.34,817.25 423.33,1270 23.78,185.66 -118.5,595.77 -211.67,740.84 -47.03,35.27 -94.08,70.56 -141.11,105.83 -17.05,46.88 16.59,4.37 35.28,35.28 -72.74,293.76 37.52,687.92 105.83,952.5 0,129.34 0,258.71 0,388.05 203.93,521.71 850.27,745.52 917.23,1375.84 -161.39,152.52 -862.56,348.13 -1270,211.66 -234.88,-78.66 -337.61,-363.61 -529.17,-458.61 -73.13,-36.26 -160.9,0.15 -211.67,-35.28 -206.7,-228.71 -258.19,-890.78 -141.11,-1234.72 36.9,-108.4 159.98,-382.74 105.83,-564.44 -160.43,-538.43 -203.12,-779.56 -564.44,-1128.89 30.45,-89.01 167.15,-1383.56 141.11,-1446.39 -34.26,-82.66 -179.28,-158.07 -211.67,-246.94 0,-141.1 0,-282.24 0,-423.34 -46.33,-189.96 -131.2,-418.46 -176.38,-599.72 11.75,-129.34 23.51,-258.72 35.27,-388.06 -38.04,-177.34 -212.93,-337.56 -246.94,-529.16 -18.38,-103.55 108.17,-239.21 70.55,-388.06 -89.43,-353.87 -279.31,-683.07 -423.33,-1058.33 -105.69,-275.42 -48.43,-580.47 -141.1,-881.94 -119.75,-389.53 -259.28,-937.53 -352.78,-1340.56 -23.51,0 -47.04,0 -70.55,0 0,11.76 0,23.52 0,35.28 -331.04,274.22 -290.68,916.31 -423.34,1411.11 -70.12,261.55 -33.1,583.68 -105.83,881.94 -12.93,53.04 -99.23,200.79 -105.83,246.95 23.51,70.55 47.04,141.12 70.55,211.66 -58.96,365.77 -238.29,464.64 -246.94,917.23z"/>
  </g>
  <g id="_1984724417312">
   <path class="fil0" d="M11183.05 5715c-9.06,112.75 -35.09,112.59 0,176.39 41.61,28.32 59.31,27.27 141.11,35.28 0,-11.76 0,-23.52 0,-35.28 -39,-48.82 -52.7,-101.36 -70.56,-176.39 -23.52,0 -47.04,0 -70.55,0z"/>
  </g>
  <g id="_1984724417792">
   <path class="fil0" d="M10230.54 7231.94c-139.21,217.03 -332.73,281.23 -352.77,635 42.03,30.61 39.67,29.02 70.55,70.56 61.88,-22.25 34.27,-6.8 70.56,-35.28 208,-54.21 379.65,-272.7 388.05,-529.16 -24.05,-27.21 -46.25,-78.73 -70.55,-105.84 0,-11.76 0,-23.52 0,-35.28 -35.28,0 -70.56,0 -105.84,0z"/>
  </g>
  <g id="_1984724418320">
   <path class="fil0" d="M4198.05 8537.22c-112.55,206.01 -322.19,462.85 -352.77,705.56 156.2,149.01 252.23,280.06 493.89,352.78 0,-11.76 0,-23.52 0,-35.28 91.84,-77.84 214.93,-140.63 246.94,-282.22 -204.55,-151.57 -104.65,-491.64 -246.94,-705.56 0,-11.76 0,-23.52 0,-35.28 -47.04,0 -94.08,0 -141.12,0z"/>
  </g>
  <g id="_1984724417360">
   <path class="fil0" d="M8572.49 9913.06c-94.76,248.44 1.33,545.89 176.39,635 54.5,24.96 4.77,4.55 105.83,0 51.55,-116.41 108.93,-154.74 141.11,-282.23 -198.31,-52.52 -241.54,-184.69 -317.5,-352.77 -35.27,0 -70.56,0 -105.83,0z"/>
  </g>
  <g id="_1984721780720">
   <path class="fil0" d="M3774.72 11041.94c-201.37,264.4 -632.46,479.8 -705.55,846.67 81.39,82.3 89,163.14 211.66,211.67 167.34,104.55 688.13,-197.55 740.84,-352.78 60.85,-93.02 82.58,-310.32 105.83,-423.33 -131.99,-107.4 -135.62,-251.42 -352.78,-282.23z"/>
  </g>
  <path class="fil1" d="M5826.49 18383c-114.48,29.21 -53.9,-17.29 -105.84,70.55 6.59,7.85 -52.82,902.86 -176.39,1164.17 -35.27,23.51 -70.55,47.04 -105.83,70.55 -102.35,232.21 -1.59,443.59 -70.55,705.56 -16.73,63.55 -151.16,393.18 -141.12,423.33 35.28,11.76 70.56,23.52 105.84,35.28l105.83 705.56c-36.32,257.52 -317.7,398.58 -388.05,599.72 -28.07,80.24 34.03,94.99 35.27,141.11 4.39,162.61 -199.64,869 -246.94,1058.33 -90.4,361.86 280.82,834.38 70.55,1164.17 -95.82,258.73 -301.12,147.57 -458.61,246.94 -68.43,43.18 -50.27,158.21 -105.83,211.67 -243.86,234.62 -1054.7,478.73 -1516.94,388.06 -11.76,-35.28 -23.52,-70.56 -35.28,-105.84 -65.46,-92.13 -24.36,-277.79 35.28,-352.78 90.95,-291.74 437.49,-415.28 599.72,-635 11.76,-58.79 23.52,-117.59 35.28,-176.38 124.81,-276.76 334.35,-610.73 423.33,-917.23 39.74,-136.9 61.94,-798.1 0,-917.22 -92.65,-178.18 -364.58,-643.28 -246.95,-987.78 33.64,-98.5 175.98,-212.27 211.67,-317.5 11.76,-364.5 23.52,-729.11 35.28,-1093.61 72.03,-307.25 155.89,-705.74 105.83,-952.5 -69.22,-341.25 172.9,-615.19 105.84,-846.66 -21.98,-75.86 -149.49,-167.21 -176.39,-246.95 0,-235.16 0,-470.39 0,-705.55 -70.05,-317.18 -10.33,-714.11 -70.56,-987.78 -71.17,-323.4 -112.22,-679.26 -35.28,-1023.06 195.65,-102.15 291.51,-136.43 282.23,-458.61 80.6,-130.5 3.92,-493.58 35.27,-670.28 -53.46,-18.89 -59.74,-23.81 -141.11,-35.27 -43.12,217.68 -101.65,681.59 -352.78,705.55 -72.17,-114.34 -105.39,-142.22 -105.83,-352.78 100.22,-146.19 297.85,-1173.53 317.5,-1411.1 -11.76,0 -23.52,0 -35.28,0 0,-11.76 0,-23.52 0,-35.28 -184.4,67.88 -440.85,154.78 -670.27,70.56 -94.28,-34.61 -155.06,-180.63 -317.5,-141.11 -166.01,40.39 -221.14,188.81 -458.62,211.67 -91.89,-149.18 -142.09,-365.33 -246.94,-529.17 -136.52,-213.33 -363.62,-343.34 -388.06,-670.28 28.38,-36.02 12.53,-9.66 35.28,-70.55 265.91,-116.93 493.05,-341.85 740.84,-458.62 176.37,-58.79 352.79,-117.59 529.16,-176.38 64.96,-48.31 58.8,-102.05 70.56,-211.67 -185.19,-126.74 -675.39,-655.33 -740.84,-881.95 -204.49,-708.13 376.98,-1322.51 635,-1728.61 136.46,-214.76 93.08,-503.22 211.67,-740.83 89.27,-178.84 286.25,-333.72 388.06,-493.89 150.01,-236.01 99.92,-649.98 317.5,-811.39 123.71,-91.78 349.94,-203.63 493.89,-246.94 105.82,-11.76 211.67,-23.52 317.5,-35.28 105.95,-61.38 163.66,-249.74 282.22,-317.5 129.34,-23.52 258.71,-47.04 388.05,-70.55 164.44,-91.73 327.04,-519.66 352.78,-740.84 -141.47,-110.34 -100.01,-272.18 -317.5,-317.5 -103.42,97.48 -276.85,68.87 -423.33,35.28 -334.31,-564.53 -48.33,-1071.11 141.11,-1587.5 11.76,-117.58 23.52,-235.2 35.28,-352.78 174.12,-481.14 908.6,-977.18 1693.33,-705.55 372.02,128.77 708.41,519.75 846.66,881.94 41.91,109.8 -29.47,556.62 70.55,670.28 32.88,32.21 61.91,46.94 105.84,70.55 -20.47,53.64 -38.99,35.99 -70.56,70.56 53.12,175.81 87.97,380.52 105.83,388.06 0,11.75 0,23.51 0,35.27 -35.27,11.76 -70.56,23.52 -105.83,35.28 6.4,208.52 -125.56,212.32 -211.67,423.33 -136.58,-5.18 -342.73,-18.93 -423.33,35.28 -77.29,66.36 -169.83,339.59 -141.1,388.06 11.76,23.51 23.52,47.04 35.28,70.55 78.6,-35.16 100.41,-53.84 211.65,-70.55 64.06,90.02 189.31,154.87 246.95,246.94 23.51,94.07 47.04,188.16 70.55,282.22 35.28,11.76 70.56,23.52 105.84,35.28 142.35,76.16 404.24,-22.16 599.72,70.56 126.93,60.2 142.43,242.11 246.94,317.5 184.16,132.83 510.52,166.17 635,352.77 23.52,105.83 47.04,211.68 70.56,317.5 64.91,144.84 178.73,258.61 246.94,458.62 38.33,112.37 -14.8,240.09 35.28,317.5 41.61,28.31 59.31,27.27 141.11,35.27 301.56,-267.14 1292.95,-396.56 1340.56,-846.66 -59.87,-127.54 65.03,-561.75 105.83,-740.84 53.47,-18.89 59.74,-23.81 141.11,-35.27 95.52,230.08 168.47,469.35 282.23,670.27 61.88,-22.25 34.26,-6.8 70.55,-35.27 660.41,-171.07 928.06,-954.29 1658.06,-987.78 0,11.76 0,23.52 0,35.28 11.75,0 23.52,0 35.27,0 18.14,134.33 49.37,148.47 70.56,282.22 -241.88,136.83 -496.06,393.93 -740.83,493.89 -105.83,0 -211.68,0 -317.5,0 -105.58,35.31 -457.2,239.69 -564.45,317.5 -114.69,83.21 -86.02,281.34 -176.39,388.05 -236.82,279.66 -717.13,505.39 -1058.33,670.28 -28.07,328.37 137.2,525.22 70.56,846.67 -204.55,64.46 -615.94,374.88 -635.01,635 46.42,66.64 154.46,266.34 176.39,317.5 15.14,35.3 -47.49,130.94 -35.27,176.39 35.92,133.64 205.1,144.84 246.94,317.5 -43.43,77.34 -25.8,131.2 0,211.66 -82.58,190.55 -300.42,863.59 -564.44,952.5 -115.43,72.83 -322.01,8.78 -423.34,35.28 11.76,35.27 23.52,70.56 35.28,105.83 70.55,11.76 141.12,23.52 211.67,35.28 273.65,616.43 297.6,1160.66 246.94,1869.72 -46.51,9.34 -881.94,246.95 -881.94,246.95 0,82.3 0,164.64 0,246.94 186.73,203.16 118.7,904.35 70.55,1164.16 162.64,61.59 333.78,211.36 352.78,423.33 195.79,308.95 -152,809.66 -70.55,1199.45 23.51,0 47.03,0 70.55,0 -30.77,136.86 -86,268.24 -35.28,458.61 28.74,107.86 -22.91,220.17 -35.27,388.05 -6.73,91.21 130.59,244.92 105.83,388.06 -10.55,60.97 -85.87,173.52 -105.83,211.67 1.9,35.86 73.09,74.09 35.27,141.11 -35.27,11.76 -70.56,23.52 -105.83,35.27 -27.54,57.04 -8.55,692.09 0,776.12 16.33,160.41 117.9,416.38 176.39,635 47.15,176.25 -55.74,288.44 -35.28,388.05 6.8,33.09 100.03,124.15 105.83,141.11 40.83,119.25 -82.82,371.16 -35.27,458.61 202.86,373.14 365.34,817.25 423.33,1270 23.78,185.66 -118.5,595.77 -211.67,740.84 -47.03,35.27 -94.08,70.56 -141.11,105.83 -17.05,46.88 16.59,4.37 35.28,35.28 -72.74,293.76 37.52,687.92 105.83,952.5 0,129.34 0,258.71 0,388.05 203.93,521.71 850.27,745.52 917.23,1375.84 -161.39,152.52 -862.56,348.13 -1270,211.66 -234.88,-78.66 -337.61,-363.61 -529.17,-458.61 -73.13,-36.26 -160.9,0.15 -211.67,-35.28 -206.7,-228.71 -258.19,-890.78 -141.11,-1234.72 36.9,-108.4 159.98,-382.74 105.83,-564.44 -160.43,-538.43 -203.12,-779.56 -564.44,-1128.89 30.45,-89.01 167.15,-1383.56 141.11,-1446.39 -34.26,-82.66 -179.28,-158.07 -211.67,-246.94 0,-141.1 0,-282.24 0,-423.34 -46.33,-189.96 -131.2,-418.46 -176.38,-599.72 11.75,-129.34 23.51,-258.72 35.27,-388.06 -38.04,-177.34 -212.93,-337.56 -246.94,-529.16 -18.38,-103.55 108.17,-239.21 70.55,-388.06 -89.43,-353.87 -279.31,-683.07 -423.33,-1058.33 -105.69,-275.42 -48.43,-580.47 -141.1,-881.94 -119.75,-389.53 -259.28,-937.53 -352.78,-1340.56 -23.51,0 -47.04,0 -70.55,0 0,11.76 0,23.52 0,35.28 -331.04,274.22 -290.68,916.31 -423.34,1411.11 -70.12,261.55 -33.1,583.68 -105.83,881.94 -12.93,53.04 -99.23,200.79 -105.83,246.95 23.51,70.55 47.04,141.12 70.55,211.66 -58.96,365.77 -238.29,464.64 -246.94,917.23z"/>
  <path class="fil0" d="M12099.64 7928.21c-9.06,112.75 -35.09,112.59 0,176.39 41.61,28.32 59.31,27.27 141.11,35.28 0,-11.76 0,-23.52 0,-35.28 -39,-48.82 -52.7,-101.36 -70.56,-176.39 -23.52,0 -47.04,0 -70.55,0z"/>
  <path class="fil0" d="M11147.13 9445.15c-139.21,217.03 -332.73,281.23 -352.77,635 42.03,30.61 39.67,29.02 70.55,70.56 61.88,-22.25 34.27,-6.8 70.56,-35.28 208,-54.21 379.65,-272.7 388.05,-529.16 -24.05,-27.21 -46.25,-78.73 -70.55,-105.84 0,-11.76 0,-23.52 0,-35.28 -35.28,0 -70.56,0 -105.84,0z"/>
  <path class="fil0" d="M5114.64 10750.43c-112.55,206.01 -322.19,462.85 -352.77,705.56 156.2,149.01 252.23,280.06 493.89,352.78 0,-11.76 0,-23.52 0,-35.28 91.84,-77.84 214.93,-140.63 246.94,-282.22 -204.55,-151.57 -104.65,-491.64 -246.94,-705.56 0,-11.76 0,-23.52 0,-35.28 -47.04,0 -94.08,0 -141.12,0z"/>
  <path class="fil0" d="M9489.08 12126.27c-94.76,248.44 1.33,545.89 176.39,635 54.5,24.96 4.77,4.55 105.83,0 51.55,-116.41 108.93,-154.74 141.11,-282.23 -198.31,-52.52 -241.54,-184.69 -317.5,-352.77 -35.27,0 -70.56,0 -105.83,0z"/>
  <path class="fil0" d="M4691.31 13255.15c-201.37,264.4 -632.46,479.8 -705.55,846.67 81.39,82.3 89,163.14 211.66,211.67 167.34,104.55 688.13,-197.55 740.84,-352.78 60.85,-93.02 82.58,-310.32 105.83,-423.33 -131.99,-107.4 -135.62,-251.42 -352.78,-282.23z"/>
 </g>
</svg>
